<svg width="1524" height="222" viewBox="0 0 1524 222" fill="none" xmlns="http://www.w3.org/2000/svg">
<path d="M1397.45 17.9975C1399.06 17.989 1399.06 17.989 1400.71 17.9804C1402.48 17.9865 1402.48 17.9865 1404.28 17.9927C1405.53 17.9892 1406.77 17.9857 1408.05 17.9821C1411.46 17.9748 1414.87 17.9765 1418.28 17.9828C1421.85 17.9879 1425.41 17.9832 1428.98 17.98C1434.97 17.9764 1440.96 17.9812 1446.95 17.9907C1453.88 18.0016 1460.8 17.9981 1467.73 17.9871C1473.68 17.978 1479.62 17.9767 1485.57 17.9819C1489.12 17.9851 1492.67 17.9855 1496.23 17.9789C1500.18 17.972 1504.14 17.9815 1508.1 17.9927C1509.87 17.9866 1509.87 17.9866 1511.67 17.9804C1512.75 17.986 1513.82 17.9917 1514.93 17.9975C1515.87 17.9982 1516.8 17.999 1517.77 17.9998C1520.13 18.2515 1520.13 18.2515 1523.13 20.2515C1523.69 23.6265 1523.69 23.6265 1523.13 27.2515C1519.7 30.2769 1516.65 31.7187 1512.13 32.2515C1512.94 32.7786 1513.75 33.3058 1514.59 33.8489C1517.13 36.2515 1517.13 36.2515 1517.76 39.1956C1517.76 40.3497 1517.76 41.5038 1517.76 42.6928C1517.77 43.3373 1517.78 43.9819 1517.79 44.6459C1517.81 46.8037 1517.8 48.9598 1517.79 51.1177C1517.79 52.6651 1517.8 54.2124 1517.82 55.7598C1517.85 59.96 1517.84 64.1597 1517.83 68.3599C1517.83 72.7496 1517.86 77.139 1517.88 81.5286C1517.92 89.8407 1517.93 98.1525 1517.93 106.465C1517.94 115.928 1517.97 125.391 1518 134.854C1518.08 154.32 1518.11 173.785 1518.13 193.251C1518.79 193.581 1519.45 193.911 1520.13 194.251C1520.49 200.75 1520.49 200.75 1518.75 203.126C1515.7 205.239 1513.76 205.379 1510.08 205.385C1509.01 205.389 1507.94 205.394 1506.84 205.398C1505.66 205.398 1504.49 205.397 1503.27 205.397C1502.04 205.4 1500.8 205.403 1499.53 205.407C1496.13 205.415 1492.74 205.418 1489.34 205.419C1486.51 205.42 1483.68 205.423 1480.85 205.427C1474.18 205.435 1467.5 205.437 1460.82 205.437C1453.93 205.436 1447.03 205.447 1440.14 205.463C1434.23 205.476 1428.31 205.481 1422.4 205.48C1418.87 205.48 1415.33 205.483 1411.8 205.493C1407.86 205.505 1403.92 205.5 1399.98 205.494C1398.21 205.503 1398.21 205.503 1396.41 205.511C1395.34 205.507 1394.28 205.503 1393.17 205.499C1392.24 205.499 1391.31 205.5 1390.35 205.5C1388.13 205.251 1388.13 205.251 1386.13 203.251C1385.68 197.661 1385.68 197.661 1386.13 195.251C1386.62 194.851 1387.12 194.45 1387.63 194.037C1389.88 191.354 1389.5 189.173 1389.49 185.709C1389.5 185.042 1389.5 184.374 1389.5 183.687C1389.51 181.445 1389.5 179.205 1389.48 176.964C1389.48 175.359 1389.49 173.754 1389.49 172.15C1389.49 167.788 1389.48 163.427 1389.46 159.066C1389.45 154.508 1389.45 149.951 1389.45 145.394C1389.44 137.742 1389.43 130.091 1389.41 122.439C1389.38 112.605 1389.37 102.77 1389.36 92.9358C1389.36 84.4953 1389.35 76.0547 1389.33 67.6141C1389.33 64.8936 1389.33 62.173 1389.32 59.4524C1389.32 55.186 1389.31 50.9196 1389.29 46.6531C1389.29 45.0829 1389.29 43.5127 1389.29 41.9425C1389.28 39.8082 1389.28 37.6739 1389.27 35.5396C1389.26 34.3424 1389.26 33.1452 1389.26 31.9118C1389.43 29.3299 1389.43 29.3299 1388.13 28.2515C1387.98 25.5809 1388.08 22.9271 1388.13 20.2515C1391.35 18.3498 1393.73 18.0005 1397.45 17.9975Z" fill="#825759"/>
<path d="M1256.29 37.4582C1257.63 37.4602 1258.97 37.4591 1260.31 37.4551C1263.94 37.4531 1267.57 37.4942 1271.2 37.5431C1274.99 37.587 1278.79 37.591 1282.58 37.5993C1289.77 37.6211 1296.95 37.6785 1304.13 37.7488C1312.31 37.8271 1320.49 37.8655 1328.67 37.9006C1345.49 37.9738 1362.31 38.0968 1379.13 38.2529C1380.47 40.9435 1380.25 43.0156 1380.25 46.0294C1380.26 47.2592 1380.26 48.489 1380.26 49.756C1380.26 51.1261 1380.26 52.4963 1380.25 53.8664C1380.26 55.3035 1380.26 56.7406 1380.26 58.1777C1380.26 62.0866 1380.26 65.9955 1380.26 69.9044C1380.26 73.9879 1380.26 78.0714 1380.26 82.1549C1380.26 89.0122 1380.26 95.8695 1380.26 102.727C1380.25 110.666 1380.25 118.605 1380.26 126.544C1380.26 133.349 1380.26 140.155 1380.26 146.961C1380.26 151.031 1380.26 155.1 1380.26 159.17C1380.26 162.994 1380.26 166.818 1380.26 170.642C1380.26 172.049 1380.26 173.456 1380.26 174.864C1380.26 176.777 1380.26 178.69 1380.25 180.603C1380.25 182.213 1380.25 182.213 1380.25 183.855C1380.13 186.253 1380.13 186.253 1379.13 187.253C1377.4 187.357 1375.68 187.391 1373.95 187.398C1372.85 187.405 1371.74 187.411 1370.6 187.417C1369.4 187.419 1368.19 187.42 1366.95 187.421C1365.72 187.424 1364.49 187.428 1363.23 187.431C1360.62 187.436 1358.01 187.438 1355.4 187.438C1352.72 187.438 1350.05 187.445 1347.37 187.459C1343.52 187.477 1339.68 187.482 1335.83 187.483C1334.63 187.491 1333.44 187.498 1332.2 187.505C1330.53 187.501 1330.53 187.501 1328.82 187.496C1327.84 187.497 1326.86 187.499 1325.85 187.5C1321.52 187.107 1318.06 185.743 1315.06 182.565C1311.71 178.488 1310.85 174.003 1309.65 168.949C1307.08 158.46 1301.14 151.291 1293.13 144.253C1292.14 143.758 1292.14 143.758 1291.13 143.253C1291.13 142.593 1291.13 141.933 1291.13 141.253C1289.65 140.79 1288.17 140.333 1286.69 139.878C1285.86 139.623 1285.04 139.367 1284.19 139.104C1283.18 138.823 1282.17 138.542 1281.13 138.253C1280.22 137.99 1280.22 137.99 1279.29 137.723C1270.77 135.515 1262.01 135.832 1253.26 135.687C1252 135.657 1250.74 135.627 1249.45 135.597C1247.73 135.569 1247.73 135.569 1245.99 135.54C1243.13 135.253 1243.13 135.253 1240.13 133.253C1239.9 132.469 1239.67 131.685 1239.44 130.878C1237.66 127.331 1235.44 126.609 1231.9 125.05C1230.13 124.253 1230.13 124.253 1229.13 123.253C1228.99 121.011 1228.92 118.764 1228.88 116.518C1228.87 115.813 1228.86 115.109 1228.85 114.384C1228.72 107.011 1228.66 99.6369 1228.61 92.2632C1228.58 88.7628 1228.53 85.2639 1228.47 81.7641C1228.38 77.5418 1228.34 73.3207 1228.33 69.0976C1228.32 67.4884 1228.29 65.8791 1228.25 64.2703C1227.95 51.6123 1227.95 51.6123 1230.75 48.3746C1232.8 47.164 1232.8 47.164 1234.82 46.4529C1237.42 45.102 1237.96 44.062 1239.57 41.6831C1243.98 36.355 1249.86 37.3287 1256.29 37.4582Z" fill="#815658"/>
<path d="M695.125 72.252C702.385 72.252 709.645 72.252 717.125 72.252C717.125 85.122 717.125 97.992 717.125 111.252C729.995 111.252 742.865 111.252 756.125 111.252C756.146 114.696 756.166 118.141 756.188 121.689C756.197 122.777 756.206 123.864 756.215 124.984C756.218 125.834 756.22 126.685 756.223 127.561C756.228 128.435 756.233 129.31 756.239 130.211C756.125 132.252 756.125 132.252 755.125 133.252C752.314 133.341 749.526 133.367 746.715 133.35C745.969 133.349 745.223 133.348 744.454 133.347C741.657 133.341 738.86 133.327 736.063 133.314C729.813 133.294 723.564 133.273 717.125 133.252C717.125 145.792 717.125 158.332 717.125 171.252C709.865 171.252 702.605 171.252 695.125 171.252C695.125 158.712 695.125 146.172 695.125 133.252C682.255 133.252 669.385 133.252 656.125 133.252C656.105 129.808 656.084 126.363 656.063 122.814C656.054 121.727 656.045 120.64 656.035 119.52C656.033 118.67 656.03 117.819 656.028 116.943C656.022 116.069 656.017 115.194 656.012 114.293C656.125 112.252 656.125 112.252 657.125 111.252C659.937 111.163 662.724 111.137 665.535 111.154C666.281 111.155 667.027 111.156 667.796 111.157C670.593 111.163 673.391 111.177 676.188 111.189C682.437 111.21 688.686 111.231 695.125 111.252C695.125 98.382 695.125 85.512 695.125 72.252Z" fill="#875E5F"/>
<path d="M0.12442 50.252C9.69442 50.252 19.2644 50.252 29.1244 50.252C31.421 55.6107 33.6542 60.9824 35.8432 66.3848C37.0852 69.1642 38.5516 71.6503 40.1244 74.252C40.7658 75.7154 41.3699 77.1956 41.9369 78.6895C45.3864 87.5295 49.1521 96.2262 53.1869 104.814C56.153 111.181 58.6765 117.672 61.1244 124.252C61.4119 124.992 61.6993 125.732 61.9955 126.494C63.9996 131.665 65.5716 136.928 67.1244 142.252C67.1244 136.972 67.1244 131.692 67.1244 126.252C66.4644 126.252 65.8044 126.252 65.1244 126.252C65.1244 101.172 65.1244 76.092 65.1244 50.252C73.7044 50.252 82.2844 50.252 91.1244 50.252C91.1244 96.452 91.1244 142.652 91.1244 190.252C81.5544 190.252 71.9844 190.252 62.1244 190.252C61.4644 187.612 60.8044 184.972 60.1244 182.252C59.2597 180.153 59.2597 180.153 58.2494 178.439C56.0957 174.388 54.6159 170.207 53.1518 165.865C52.068 163.108 50.6639 160.778 49.1244 158.252C48.4409 156.706 47.7945 155.142 47.1869 153.564C46.8479 152.697 46.5089 151.829 46.1596 150.936C45.818 150.05 45.4764 149.164 45.1244 148.252C42.3818 141.169 42.3818 141.169 39.1244 134.314C37.0275 130.277 35.5868 126.079 34.1518 121.768C33.2613 119.247 33.2613 119.247 31.6713 117.439C29.4039 114.233 28.5312 110.744 27.4369 107.002C27.212 106.257 26.987 105.512 26.7553 104.744C26.2044 102.916 25.6634 101.084 25.1244 99.252C25.1955 99.8305 25.2665 100.409 25.3397 101.005C26.3386 110.277 26.251 119.514 26.2221 128.826C26.2202 130.604 26.2188 132.382 26.2178 134.16C26.214 138.804 26.2042 143.448 26.1931 148.092C26.1828 152.845 26.1783 157.598 26.1732 162.352C26.1626 171.652 26.1455 180.952 26.1244 190.252C21.9786 190.281 17.8328 190.299 13.6869 190.314C12.5029 190.323 11.3189 190.331 10.099 190.34C8.97432 190.343 7.84962 190.346 6.69083 190.35C5.12764 190.357 5.12764 190.357 3.53287 190.365C1.12442 190.252 1.12442 190.252 0.12442 189.252C0.0280283 187.455 0.00254593 185.654 0.00416566 183.855C0.002791 182.684 0.00141632 181.513 0 180.306C0.00359528 179.01 0.00719056 177.714 0.0108948 176.379C0.0111767 175.009 0.0110189 173.639 0.0104523 172.27C0.0101643 168.541 0.0160611 164.812 0.0230262 161.082C0.0292597 157.189 0.0298636 153.296 0.0310516 149.403C0.034165 142.026 0.0423784 134.649 0.0524011 127.272C0.0635622 118.875 0.0690727 110.479 0.0740966 102.082C0.084561 84.8055 0.102907 67.5287 0.12442 50.252ZM5.12442 54.252C5.12442 97.482 5.12442 140.712 5.12442 185.252C10.4044 185.252 15.6844 185.252 21.1244 185.252C21.1244 153.242 21.1244 121.232 21.1244 88.252C24.1244 89.252 24.1244 89.252 25.1518 91.291C25.4521 92.1444 25.7525 92.9977 26.0619 93.877C27.4422 97.5838 29.0077 100.82 31.058 104.213C33.0076 107.941 34.3466 111.925 35.7807 115.873C37.0548 119.077 38.507 122.081 40.0717 125.148C41.8756 128.753 43.4953 132.44 45.1244 136.127C45.4747 136.916 45.825 137.706 46.1859 138.519C48.3241 143.362 50.348 148.234 52.265 153.17C53.1202 155.242 54.0891 157.202 55.1244 159.189C56.7479 162.322 57.9625 165.483 59.1244 168.814C60.2888 172.137 61.5125 175.162 63.3119 178.189C65.1244 181.252 65.1244 181.252 66.1244 185.252C72.7244 185.252 79.3244 185.252 86.1244 185.252C86.1244 142.352 86.1244 99.452 86.1244 55.252C80.8444 55.252 75.5644 55.252 70.1244 55.252C70.1244 86.602 70.1244 117.952 70.1244 150.252C65.6783 145.806 65.6783 145.806 64.3119 141.377C62.559 136.187 60.2809 131.458 57.7663 126.597C55.2154 121.596 53.2504 116.478 51.3119 111.217C49.9152 107.73 48.1498 104.608 46.2494 101.377C44.6968 98.4442 43.778 95.4067 42.8041 92.2441C41.9254 89.6688 40.574 87.5471 39.1244 85.252C38.3796 83.5681 37.6375 81.8827 36.933 80.1816C36.0789 78.1434 35.1664 76.1377 34.2494 74.127C32.021 69.1644 30.1477 64.0795 28.2729 58.9746C27.2895 56.1659 27.2895 56.1659 25.1244 54.252C18.5244 54.252 11.9244 54.252 5.12442 54.252Z" fill="#8F6869"/>
<path d="M373.125 50.2527C373.888 50.4809 374.651 50.709 375.438 50.9441C380.164 52.4646 382.873 54.5614 386.125 58.2527C386.991 59.0365 387.858 59.8202 388.75 60.6277C391.579 63.7547 392.644 66.3279 394.125 70.2527C394.62 71.2427 394.62 71.2427 395.125 72.2527C395.359 74.0807 395.538 75.9159 395.688 77.7527C395.771 78.7324 395.855 79.7121 395.942 80.7215C396.176 85.2262 396.125 89.7419 396.125 94.2527C388.205 94.2527 380.285 94.2527 372.125 94.2527C371.878 92.0665 371.63 89.8802 371.375 87.6277C370.281 80.0882 369.237 76.6025 363.063 71.9402C357.495 68.7416 352.41 68.7575 346.125 69.2527C341.283 70.9253 339.077 73.1458 336.125 77.2527C331.439 88.1742 332.672 101.343 332.734 112.944C332.75 116.481 332.734 120.017 332.715 123.554C331.866 146.528 331.866 146.528 340.527 166.905C344.873 170.571 348.844 170.697 354.371 170.55C358.458 170.109 361.222 169.223 364.125 166.253C368.886 158.9 370.184 152.059 370.688 143.44C370.832 141.068 370.976 138.696 371.125 136.253C364.855 136.253 358.585 136.253 352.125 136.253C352.125 128.663 352.125 121.073 352.125 113.253C366.975 113.253 381.825 113.253 397.125 113.253C397.125 138.663 397.125 164.073 397.125 190.253C390.855 190.253 384.585 190.253 378.125 190.253C378.125 185.633 378.125 181.013 378.125 176.253C377.465 176.253 376.805 176.253 376.125 176.253C376.058 176.829 375.991 177.405 375.922 177.999C374.811 181.141 373 182.3 370.375 184.315C369.514 184.987 368.653 185.658 367.766 186.35C360.34 191.7 360.34 191.7 355.125 191.253C355.125 191.913 355.125 192.573 355.125 193.253C330.113 193.946 330.113 193.946 320.875 186.128C312.074 177.52 309.276 170.326 307.125 158.253C306.767 156.853 306.395 155.456 306 154.065C303.51 143.214 303.939 131.947 303.94 120.875C303.938 118.023 303.919 115.171 303.901 112.319C303.773 72.1359 303.773 72.1359 317.125 58.2527C317.602 57.7139 318.079 57.1751 318.57 56.6199C331.727 43.4635 356.826 44.4354 373.125 50.2527ZM318.738 63.1433C314.822 68.2636 313.548 74.0352 312.5 80.2527C312.379 80.9256 312.258 81.5985 312.133 82.2918C311.781 84.2759 311.453 86.2643 311.125 88.2527C310.949 89.2691 310.774 90.2856 310.593 91.3328C310.011 96.2124 309.982 101 309.992 105.909C309.991 106.929 309.99 107.949 309.989 109C309.989 111.155 309.991 113.31 309.995 115.465C310 118.714 309.995 121.964 309.988 125.214C308.774 144.298 308.774 144.298 313.125 162.253C313.365 163.623 313.572 164.998 313.75 166.378C315.387 174.299 321.678 180.704 328.125 185.253C337.448 189.027 349.434 190.532 358.981 186.964C365.877 183.968 371.774 180.194 375.125 173.253C375.125 172.593 375.125 171.933 375.125 171.253C376.775 171.253 378.425 171.253 380.125 171.253C380.104 172.449 380.084 173.645 380.063 174.878C380.056 178.433 380.426 181.758 381.125 185.253C384.755 185.253 388.385 185.253 392.125 185.253C392.125 163.143 392.125 141.033 392.125 118.253C380.575 118.253 369.025 118.253 357.125 118.253C357.125 122.543 357.125 126.833 357.125 131.253C363.395 131.253 369.665 131.253 376.125 131.253C374.905 161.257 374.905 161.257 367.125 170.253C361.212 174.872 355.207 175.958 347.824 175.608C341.811 174.816 337.827 171.955 334.125 167.253C333.148 164.647 332.389 162.058 331.703 159.362C331.321 157.283 331.321 157.283 330.125 156.253C327.999 144.45 327.762 132.647 327.813 120.69C327.814 119.818 327.816 118.945 327.817 118.047C327.849 107.546 328.052 97.1227 329.375 86.6902C329.484 85.8071 329.593 84.924 329.706 84.0142C330.703 77.4463 332.708 72.4397 337.75 67.8777C343.787 63.7471 352.011 64.5675 359.125 65.2527C362.435 66.1984 364.24 67.2724 367.125 69.2527C367.888 69.6858 368.651 70.119 369.438 70.5652C374.556 75.6837 375.035 83.4575 376.125 90.2527C381.405 90.2527 386.685 90.2527 392.125 90.2527C392.125 80.7097 391.49 70.4623 384.988 62.9285C375.466 54.3645 365.208 51.7439 352.75 51.8777C351.141 51.8603 351.141 51.8603 349.5 51.8426C337.553 51.8862 327.438 54.744 318.738 63.1433Z" fill="#926C6C"/>
<path d="M1115.12 50.252C1140.2 50.252 1165.28 50.252 1191.12 50.252C1191.12 58.172 1191.12 66.092 1191.12 74.252C1175.28 74.252 1159.44 74.252 1143.12 74.252C1143.12 84.482 1143.12 94.712 1143.12 105.252C1157.64 105.252 1172.16 105.252 1187.12 105.252C1187.12 112.842 1187.12 120.432 1187.12 128.252C1172.6 128.252 1158.08 128.252 1143.12 128.252C1143.12 140.462 1143.12 152.672 1143.12 165.252C1159.29 165.252 1175.46 165.252 1192.12 165.252C1192.12 173.172 1192.12 181.092 1192.12 189.252C1190.47 190.911 1188.47 190.378 1186.25 190.387C1185.21 190.384 1185.21 190.384 1184.14 190.381C1183.41 190.383 1182.68 190.385 1181.93 190.387C1179.51 190.391 1177.08 190.388 1174.66 190.385C1172.98 190.385 1171.3 190.386 1169.62 190.388C1166.1 190.389 1162.58 190.387 1159.06 190.382C1154.54 190.377 1150.01 190.38 1145.49 190.386C1142.03 190.389 1138.56 190.388 1135.09 190.386C1133.43 190.385 1131.76 190.386 1130.09 190.388C1127.76 190.391 1125.43 190.387 1123.11 190.381C1122.41 190.383 1121.71 190.385 1121 190.387C1116.24 190.366 1116.24 190.366 1115.12 189.252C1115.03 187.455 1115 185.654 1115 183.855C1115 182.684 1115 181.513 1115 180.306C1115 179.01 1115.01 177.714 1115.01 176.379C1115.01 175.009 1115.01 173.639 1115.01 172.27C1115.01 168.541 1115.02 164.812 1115.02 161.082C1115.03 157.189 1115.03 153.296 1115.03 149.403C1115.03 142.026 1115.04 134.649 1115.05 127.272C1115.07 117.307 1115.07 107.341 1115.08 97.3762C1115.09 81.6681 1115.11 65.96 1115.12 50.252ZM1121.12 55.252C1121.12 98.152 1121.12 141.052 1121.12 185.252C1142.57 185.252 1164.02 185.252 1186.12 185.252C1186.12 180.302 1186.12 175.352 1186.12 170.252C1170.28 170.252 1154.44 170.252 1138.12 170.252C1138.12 154.742 1138.12 139.232 1138.12 123.252C1152.64 123.252 1167.16 123.252 1182.12 123.252C1182.12 118.962 1182.12 114.672 1182.12 110.252C1167.6 110.252 1153.08 110.252 1138.12 110.252C1138.12 96.722 1138.12 83.192 1138.12 69.252C1153.63 69.252 1169.14 69.252 1185.12 69.252C1185.12 64.632 1185.12 60.012 1185.12 55.252C1164 55.252 1142.88 55.252 1121.12 55.252Z" fill="#957070"/>
<path d="M164.125 50.252C188.875 50.252 213.625 50.252 239.125 50.252C239.125 58.172 239.125 66.092 239.125 74.252C223.285 74.252 207.445 74.252 191.125 74.252C191.125 84.482 191.125 94.712 191.125 105.252C205.645 105.252 220.165 105.252 235.125 105.252C235.125 112.842 235.125 120.432 235.125 128.252C220.605 128.252 206.085 128.252 191.125 128.252C191.125 140.462 191.125 152.672 191.125 165.252C207.295 165.252 223.465 165.252 240.125 165.252C240.125 173.172 240.125 181.092 240.125 189.252C238.464 190.913 236.463 190.372 234.245 190.376C233.546 190.373 232.847 190.369 232.127 190.365C231.383 190.366 230.64 190.366 229.874 190.366C227.456 190.365 225.039 190.357 222.621 190.35C221.133 190.348 219.645 190.347 218.156 190.347C212.625 190.341 207.094 190.327 201.562 190.314C189.208 190.294 176.854 190.273 164.125 190.252C164.125 144.052 164.125 97.852 164.125 50.252ZM169.125 55.252C169.125 98.152 169.125 141.052 169.125 185.252C190.905 185.252 212.685 185.252 235.125 185.252C235.125 180.302 235.125 175.352 235.125 170.252C218.955 170.252 202.785 170.252 186.125 170.252C186.125 154.742 186.125 139.232 186.125 123.252C200.645 123.252 215.165 123.252 230.125 123.252C230.125 118.962 230.125 114.672 230.125 110.252C215.605 110.252 201.085 110.252 186.125 110.252C186.125 96.722 186.125 83.192 186.125 69.252C201.635 69.252 217.145 69.252 233.125 69.252C233.125 64.632 233.125 60.012 233.125 55.252C212.005 55.252 190.885 55.252 169.125 55.252Z" fill="#906A6A"/>
<path d="M953.125 50.252C962.695 50.252 972.265 50.252 982.125 50.252C983.463 54.2657 984.534 57.7983 985.344 61.8848C985.554 62.9392 985.764 63.9937 985.98 65.0801C986.193 66.168 986.406 67.256 986.625 68.377C986.838 69.4417 987.05 70.5065 987.27 71.6035C988.522 77.9328 989.641 84.2727 990.683 90.6396C992.224 99.7408 994.721 108.655 997.16 117.549C999.345 125.935 1000.73 134.204 1001.75 142.814C1001.95 144.471 1001.95 144.471 1002.16 146.16C1002.48 148.857 1002.81 151.554 1003.12 154.252C1003.23 153.15 1003.34 152.048 1003.46 150.912C1004.28 142.94 1005.23 135.021 1006.62 127.127C1006.74 126.454 1006.86 125.781 1006.98 125.088C1007.72 121.055 1008.63 117.093 1009.65 113.124C1011.95 104.107 1013.52 94.993 1015 85.8145C1016.93 73.8464 1019.46 62.079 1022.12 50.252C1031.69 50.252 1041.26 50.252 1051.12 50.252C1051.12 57.252 1051.12 57.252 1050.12 60.252C1049.46 60.252 1048.81 60.252 1048.12 60.252C1048.08 60.839 1048.03 61.426 1047.98 62.0308C1047.38 68.7285 1046.31 75.2719 1045.06 81.877C1044.88 82.8811 1044.69 83.8853 1044.5 84.9199C1044.04 87.3646 1043.59 89.8086 1043.12 92.252C1042.46 92.252 1041.81 92.252 1041.12 92.252C1041.05 93.3425 1041.05 93.3425 1040.98 94.4551C1039.56 113.558 1039.56 113.558 1037.16 118.069C1035.94 120.632 1035.48 122.977 1034.98 125.768C1034.78 126.846 1034.58 127.924 1034.37 129.036C1034.07 130.751 1034.07 130.751 1033.75 132.502C1032.36 140.015 1030.95 147.486 1029 154.877C1027.32 161.297 1026.05 167.703 1024.93 174.24C1023.91 179.301 1022.48 184.271 1021.12 189.252C1009.24 189.252 997.365 189.252 985.125 189.252C981.755 180.266 981.755 180.266 981.281 176.85C981.169 176.104 981.057 175.358 980.941 174.59C980.837 173.839 980.733 173.088 980.625 172.314C979.983 167.724 979.256 163.396 977.691 159.021C975.221 152.004 974.227 144.623 972.932 137.318C972.726 136.196 972.52 135.073 972.309 133.916C972.039 132.392 972.039 132.392 971.763 130.836C971.227 128.038 971.227 128.038 969.125 125.252C968.79 123.576 968.529 121.885 968.312 120.189C967.488 114.741 966.164 109.592 964.625 104.314C962.766 97.9157 961.462 91.6779 960.586 85.0605C960.04 81.737 959.008 78.7915 957.848 75.6426C956.626 71.6028 956.182 67.4456 955.652 63.2676C955.239 60.2664 955.239 60.2664 954.066 57.6738C953.125 55.252 953.125 55.252 953.125 50.252ZM959.125 55.252C958.945 61.1904 958.945 61.1904 960.375 66.1895C964.182 76.7656 966.363 87.9176 968.414 98.9473C969.038 102.183 969.038 102.183 970.062 104.932C971.667 109.944 972.521 115.086 973.5 120.252C975.078 128.402 976.873 136.295 979.301 144.232C980.13 147.27 980.599 150.194 981 153.314C982.189 162.132 984.936 170.577 987.492 179.076C988.087 181.121 988.609 183.186 989.125 185.252C998.365 185.252 1007.6 185.252 1017.12 185.252C1017.56 183.169 1017.99 181.086 1018.44 178.939C1019.38 174.539 1020.38 170.199 1021.62 165.877C1023 161.01 1023.91 156.122 1024.79 151.146C1025.99 144.553 1027.59 138.07 1029.19 131.564C1031.03 124.063 1032.77 116.673 1033.7 108.998C1034.14 106.172 1034.81 103.453 1035.52 100.686C1036.83 95.3845 1037.92 90.0306 1039.06 84.6895C1039.46 82.8289 1039.46 82.8289 1039.87 80.9307C1041.69 72.3834 1043.45 63.8283 1045.12 55.252C1039.18 55.252 1033.25 55.252 1027.12 55.252C1025.66 58.9198 1024.83 61.3288 1024.25 65.0645C1023.57 69.107 1022.68 73.0227 1021.61 76.9792C1019.32 85.451 1018.38 93.4756 1018.12 102.252C1017.46 102.252 1016.81 102.252 1016.12 102.252C1014.96 107.154 1013.99 112.001 1013.28 116.99C1011.9 126.092 1009.93 135.064 1008.01 144.062C1007.53 146.302 1007.06 148.542 1006.59 150.783C1006.44 151.46 1006.29 152.137 1006.14 152.835C1005.4 156.365 1004.96 159.645 1005.12 163.252C1004.13 163.252 1003.15 163.252 1002.12 163.252C1001.99 162.522 1001.85 161.792 1001.71 161.04C1001.08 157.672 1000.45 154.306 999.812 150.939C999.599 149.792 999.386 148.644 999.166 147.461C997.961 141.113 996.583 134.895 994.778 128.69C994.095 126.14 993.618 123.605 993.188 121.002C992.447 116.637 991.386 112.451 990.188 108.189C988.397 101.704 987.183 95.2552 986.252 88.5935C985.593 84.1439 984.476 80.2517 982.809 76.0759C981.906 73.6695 981.456 71.2876 981.062 68.752C980.33 64.1169 979.28 59.8725 978.125 55.252C971.855 55.252 965.585 55.252 959.125 55.252Z" fill="#8D6566"/>
<path d="M490.125 50.252C502.335 50.252 514.545 50.252 527.125 50.252C529.595 59.5158 531.877 68.5016 533.625 77.877C535.098 85.5358 536.762 92.8633 539.234 100.26C540.45 104.345 541.121 108.485 541.843 112.682C542.91 118.618 544.44 124.384 546.062 130.189C548.663 139.498 550.999 148.825 553.125 158.252C553.794 161.208 554.463 164.165 555.133 167.121C555.578 169.091 556.022 171.061 556.463 173.031C556.665 173.927 556.866 174.822 557.074 175.744C557.253 176.542 557.432 177.34 557.616 178.162C558.136 180.424 558.136 180.424 559.125 183.252C559.125 185.562 559.125 187.872 559.125 190.252C549.555 190.252 539.985 190.252 530.125 190.252C529.321 186.704 528.516 183.157 527.688 179.502C527.436 178.41 527.184 177.319 526.924 176.194C526.724 175.29 526.523 174.386 526.316 173.455C526.112 172.554 525.908 171.654 525.698 170.726C524.854 165.61 524.556 160.418 524.125 155.252C513.565 155.252 503.005 155.252 492.125 155.252C490.935 163.402 490.935 163.402 489.762 171.554C489.608 172.588 489.453 173.621 489.293 174.686C489.065 176.249 489.065 176.249 488.833 177.844C487.955 182.07 486.49 186.157 485.125 190.252C476.215 190.252 467.305 190.252 458.125 190.252C459.28 181.011 459.28 181.011 460.062 176.627C460.216 175.748 460.369 174.869 460.527 173.963C461.125 171.252 461.125 171.252 462.09 168.4C463.27 164.812 464.019 161.2 464.75 157.502C466.575 148.587 468.587 139.718 470.654 130.857C471.007 129.34 471.358 127.822 471.708 126.304C474.878 112.542 474.878 112.542 476.777 107.791C478.357 103.642 479.01 99.6897 479.625 95.3145C480.468 89.7641 481.437 84.6016 483.461 79.3418C484.14 77.2048 484.38 75.3347 484.551 73.1035C485.051 68.1163 486.278 63.487 487.688 58.6895C488.492 55.9051 489.296 53.1207 490.125 50.252ZM493.125 55.252C492.223 60.2464 492.223 60.2464 491.331 65.2427C490.566 69.395 489.472 73.2436 488.125 77.252C487.565 80.3096 487.126 83.3701 486.688 86.4473C486.125 89.252 486.125 89.252 485.151 91.1467C484.062 93.3815 483.597 95.2987 483.152 97.7402C482.979 98.6557 482.806 99.5712 482.628 100.514C482.442 101.521 482.255 102.527 482.062 103.564C479.78 115.418 477.152 127.178 474.438 138.939C474.239 139.803 474.041 140.666 473.837 141.555C473.266 144.042 472.691 146.528 472.113 149.014C471.943 149.757 471.772 150.499 471.596 151.265C470.64 155.347 469.487 159.289 468.125 163.252C467.345 166.089 466.675 168.951 466 171.814C465.818 172.556 465.636 173.298 465.449 174.062C465.278 174.786 465.106 175.51 464.93 176.256C464.775 176.904 464.62 177.552 464.46 178.219C463.989 180.731 463.989 180.731 464.125 185.252C470.065 185.252 476.005 185.252 482.125 185.252C483.325 182.853 483.587 180.783 484 178.127C484.59 174.432 485.21 170.749 485.922 167.076C486.127 166.016 486.127 166.016 486.336 164.934C486.607 163.546 486.881 162.159 487.16 160.773C487.868 157.125 488.125 154.013 488.125 150.252C507.43 150.747 507.43 150.747 527.125 151.252C528.995 159.357 530.797 167.397 532.312 175.564C532.578 176.979 532.578 176.979 532.85 178.422C533.277 180.698 533.701 182.975 534.125 185.252C540.395 185.252 546.665 185.252 553.125 185.252C553.125 180.072 552.992 176.799 551.75 172.002C551.495 170.986 551.24 169.97 550.977 168.924C550.202 166.068 550.202 166.068 548.125 163.252C547.654 161.354 547.654 161.354 547.344 159.232C547.224 158.457 547.104 157.682 546.98 156.883C546.863 156.077 546.746 155.27 546.625 154.439C545.846 149.164 544.942 144.29 543.125 139.252C541.046 131.871 539.516 124.411 538.215 116.86C537.316 111.777 535.803 107.129 534.055 102.287C533.067 99.0629 532.63 96.0376 532.25 92.6895C531.303 85.5684 529.354 79.0589 527.125 72.252C525.45 66.5519 524.792 61.2539 524.125 55.252C513.895 55.252 503.665 55.252 493.125 55.252Z" fill="#8F6969"/>
<path d="M1488.13 34.2514C1489.91 36.0331 1489.25 38.6507 1489.25 41.0595C1489.26 42.3216 1489.26 43.5836 1489.26 44.8839C1489.26 46.2955 1489.26 47.7071 1489.26 49.1186C1489.26 50.595 1489.26 52.0713 1489.26 53.5476C1489.27 57.5682 1489.26 61.5887 1489.26 65.6093C1489.26 69.8075 1489.26 74.0058 1489.26 78.2041C1489.26 85.2557 1489.26 92.3073 1489.26 99.3588C1489.25 107.523 1489.25 115.688 1489.26 123.852C1489.26 130.849 1489.26 137.846 1489.26 144.843C1489.26 149.028 1489.26 153.212 1489.26 157.397C1489.26 161.33 1489.26 165.263 1489.26 169.196C1489.26 170.644 1489.26 172.092 1489.26 173.539C1489.26 175.507 1489.26 177.475 1489.25 179.443C1489.25 180.547 1489.25 181.651 1489.25 182.789C1489.13 185.251 1489.13 185.251 1488.13 186.251C1486.13 186.419 1486.13 186.419 1483.69 186.439C1482.89 186.453 1482.08 186.467 1481.25 186.482C1479.13 186.251 1479.13 186.251 1477.13 184.251C1476.88 181.678 1476.88 181.678 1476.89 178.354C1476.88 177.098 1476.88 175.841 1476.88 174.547C1476.88 173.147 1476.89 171.747 1476.9 170.347C1476.9 168.878 1476.9 167.41 1476.9 165.942C1476.9 161.948 1476.91 157.955 1476.92 153.961C1476.94 149.791 1476.94 145.62 1476.94 141.449C1476.95 133.548 1476.96 125.647 1476.98 117.745C1477 108.752 1477.02 99.7577 1477.03 90.7639C1477.05 72.2597 1477.08 53.7556 1477.13 35.2514C1481.01 33.9569 1484.03 34.1194 1488.13 34.2514Z" fill="#F0E3DA"/>
<path d="M862.125 50.252C871.365 50.252 880.605 50.252 890.125 50.252C890.148 68.358 890.166 86.4641 890.177 104.57C890.182 112.977 890.189 121.383 890.2 129.789C890.21 137.114 890.217 144.438 890.219 151.762C890.22 155.643 890.223 159.523 890.231 163.404C890.237 167.052 890.24 170.701 890.238 174.349C890.239 176.335 890.244 178.321 890.249 180.306C890.248 181.477 890.247 182.648 890.245 183.855C890.246 184.879 890.247 185.903 890.248 186.958C890.125 189.252 890.125 189.252 889.125 190.252C880.215 190.252 871.305 190.252 862.125 190.252C862.125 144.052 862.125 97.852 862.125 50.252ZM867.125 54.252C867.125 97.482 867.125 140.712 867.125 185.252C873.065 185.252 879.005 185.252 885.125 185.252C885.125 142.022 885.125 98.792 885.125 54.252C879.185 54.252 873.245 54.252 867.125 54.252Z" fill="#8F6869"/>
<path d="M506.125 69.252C507.445 69.252 508.765 69.252 510.125 69.252C510.225 69.8054 510.325 70.3589 510.429 70.9292C512.35 82.9287 512.35 82.9287 516.188 94.377C518.737 100.061 519.404 106.096 520.332 112.201C521.663 120.931 523.449 129.584 525.125 138.252C513.905 138.252 502.685 138.252 491.125 138.252C491.741 133.938 492.365 129.663 493.125 125.377C493.372 123.958 493.372 123.958 493.625 122.51C494.125 120.252 494.125 120.252 495.125 119.252C495.602 116.921 496.032 114.596 496.438 112.252C497.647 105.513 499.105 98.866 500.71 92.2114C501.817 87.6067 502.796 82.996 503.688 78.3457C504.333 75.2582 505.207 72.2686 506.125 69.252Z" fill="#997574"/>
<path d="M953.125 50.252C962.695 50.252 972.265 50.252 982.125 50.252C983.463 54.2657 984.534 57.7983 985.344 61.8848C985.554 62.9392 985.764 63.9937 985.98 65.0801C986.193 66.168 986.406 67.256 986.625 68.377C986.838 69.4417 987.05 70.5065 987.27 71.6035C988.522 77.9328 989.641 84.2727 990.683 90.6396C992.224 99.7408 994.721 108.655 997.16 117.549C999.345 125.935 1000.73 134.204 1001.75 142.814C1001.95 144.471 1001.95 144.471 1002.16 146.16C1002.48 148.857 1002.81 151.554 1003.12 154.252C1003.23 153.15 1003.34 152.048 1003.46 150.912C1004.28 142.94 1005.23 135.021 1006.62 127.127C1006.74 126.454 1006.86 125.781 1006.98 125.088C1007.72 121.055 1008.63 117.093 1009.65 113.124C1011.95 104.107 1013.52 94.993 1015 85.8145C1016.93 73.8464 1019.46 62.079 1022.12 50.252C1031.69 50.252 1041.26 50.252 1051.12 50.252C1051.12 57.252 1051.12 57.252 1049.12 60.252C1049.46 57.282 1049.79 54.312 1050.12 51.252C1046.65 51.3901 1043.17 51.5388 1039.69 51.6895C1038.2 51.7484 1038.2 51.7484 1036.68 51.8086C1035.26 51.8714 1035.26 51.8714 1033.82 51.9355C1032.94 51.9722 1032.07 52.0089 1031.17 52.0466C1029.13 52.0338 1029.13 52.0338 1028.12 53.252C1034.07 53.582 1040 53.912 1046.12 54.252C1045.79 56.562 1045.46 58.872 1045.12 61.252C1044 57.502 1044 57.502 1045.12 55.252C1039.18 55.252 1033.25 55.252 1027.12 55.252C1026.71 57.562 1026.3 59.872 1025.88 62.252C1024.82 68.0079 1023.56 73.6586 1022.06 79.3145C1020.07 86.9003 1018.98 94.457 1018.12 102.252C1017.46 102.252 1016.81 102.252 1016.12 102.252C1015.94 104.077 1015.94 104.077 1015.75 105.939C1014.28 118.974 1011.67 131.735 1009 144.564C1008.62 146.384 1008.25 148.204 1007.87 150.023C1006.96 154.434 1006.04 158.843 1005.12 163.252C1004.13 163.252 1003.15 163.252 1002.12 163.252C999.654 156.781 998.378 150.429 997.253 143.629C996.401 138.569 995.24 133.704 993.805 128.775C993.109 126.193 992.628 123.639 992.188 121.002C991.447 116.637 990.386 112.451 989.188 108.189C987.397 101.704 986.183 95.2552 985.252 88.5935C984.593 84.1456 983.479 80.2506 981.814 76.0759C980.905 73.6704 980.42 71.2851 980 68.752C979.78 67.468 979.78 67.468 979.555 66.1582C979.018 62.5311 978.58 58.8902 978.125 55.252C971.855 55.252 965.585 55.252 959.125 55.252C958.795 55.912 958.465 56.572 958.125 57.252C958.125 54.252 958.125 54.252 960.125 52.252C957.155 51.757 957.155 51.757 954.125 51.252C954.455 53.562 954.785 55.872 955.125 58.252C953.125 55.252 953.125 55.252 953.125 50.252Z" fill="#946E6E"/>
<path d="M165.125 51.252C167.105 51.252 169.085 51.252 171.125 51.252C171.125 51.582 171.125 51.912 171.125 52.252C191.585 52.582 212.045 52.912 233.125 53.252C233.125 53.582 233.125 53.912 233.125 54.252C211.675 54.252 190.225 54.252 168.125 54.252C168.125 97.482 168.125 140.712 168.125 185.252C190.235 185.252 212.345 185.252 235.125 185.252C235.125 179.972 235.125 174.692 235.125 169.252C219.285 169.252 203.445 169.252 187.125 169.252C187.125 154.402 187.125 139.552 187.125 124.252C201.315 124.252 215.505 124.252 230.125 124.252C230.125 125.242 230.125 126.232 230.125 127.252C217.255 127.582 204.385 127.912 191.125 128.252C191.125 140.792 191.125 153.332 191.125 166.252C214.39 166.747 214.39 166.747 238.125 167.252C238.125 174.182 238.125 181.112 238.125 188.252C214.035 188.252 189.945 188.252 165.125 188.252C165.125 143.042 165.125 97.832 165.125 51.252Z" fill="#815758"/>
<path d="M328.126 92.252C328.456 92.252 328.786 92.252 329.126 92.252C329.136 92.8982 329.147 93.5444 329.157 94.2102C329.266 100.959 329.38 107.708 329.498 114.457C329.541 116.972 329.583 119.488 329.623 122.004C329.681 125.629 329.745 129.253 329.81 132.877C329.835 134.554 329.835 134.554 329.86 136.265C329.968 142.005 330.281 147.572 331.126 153.252C331.456 149.952 331.786 146.652 332.126 143.252C332.456 143.252 332.786 143.252 333.126 143.252C333.346 144.954 333.346 144.954 333.571 146.689C335.1 158.725 335.1 158.725 342.126 168.252C346.806 171.192 351.785 170.828 357.126 170.252C361.189 169.193 363.348 167.453 365.626 163.936C369.202 157.119 370.242 151.074 370.688 143.439C370.833 141.068 370.977 138.696 371.126 136.252C364.856 136.252 358.586 136.252 352.126 136.252C352.126 128.662 352.126 121.072 352.126 113.252C366.976 113.252 381.826 113.252 397.126 113.252C397.126 138.662 397.126 164.072 397.126 190.252C390.856 190.252 384.586 190.252 378.126 190.252C378.126 189.922 378.126 189.592 378.126 189.252C384.066 189.252 390.006 189.252 396.126 189.252C396.126 164.502 396.126 139.752 396.126 114.252C383.256 114.582 370.386 114.912 357.126 115.252C368.676 115.582 380.226 115.912 392.126 116.252C392.126 116.912 392.126 117.572 392.126 118.252C380.576 118.252 369.026 118.252 357.126 118.252C357.126 122.542 357.126 126.832 357.126 131.252C363.396 131.252 369.666 131.252 376.126 131.252C376.832 160.212 376.832 160.212 367.126 171.252C361.225 175.901 355.212 176.963 347.821 176.604C342.195 175.87 338.302 173.14 334.446 169.143C332.341 166.127 331.542 162.866 330.669 159.326C330.319 157.277 330.319 157.277 329.126 156.252C327.06 145.008 326.838 133.791 326.92 122.395C326.939 119.727 326.941 117.06 326.94 114.393C326.945 112.669 326.951 110.945 326.958 109.221C326.959 108.437 326.96 107.654 326.961 106.847C327.003 101.904 327.429 97.1464 328.126 92.252Z" fill="#95706F"/>
<path d="M164.125 50.252C188.875 50.252 213.625 50.252 239.125 50.252C239.125 58.172 239.125 66.092 239.125 74.252C223.285 74.252 207.445 74.252 191.125 74.252C191.125 84.482 191.125 94.712 191.125 105.252C205.645 105.252 220.165 105.252 235.125 105.252C235.125 105.582 235.125 105.912 235.125 106.252C220.275 106.252 205.425 106.252 190.125 106.252C190.125 95.362 190.125 84.472 190.125 73.252C205.965 73.252 221.805 73.252 238.125 73.252C238.125 65.992 238.125 58.732 238.125 51.252C214.035 51.252 189.945 51.252 165.125 51.252C165.125 96.462 165.125 141.672 165.125 188.252C189.215 188.252 213.305 188.252 238.125 188.252C238.125 181.322 238.125 174.392 238.125 167.252C234.744 167.264 231.363 167.275 227.879 167.287C224.619 167.295 221.359 167.301 218.099 167.307C215.827 167.312 213.554 167.319 211.281 167.327C208.022 167.339 204.763 167.345 201.504 167.35C200.481 167.355 199.458 167.36 198.404 167.365C197.463 167.365 196.522 167.365 195.553 167.365C194.72 167.368 193.888 167.37 193.03 167.372C191.125 167.252 191.125 167.252 190.125 166.252C190.036 163.44 190.01 160.653 190.027 157.842C190.029 157 190.03 156.158 190.032 155.29C190.037 152.59 190.05 149.89 190.062 147.189C190.068 145.363 190.072 143.537 190.076 141.711C190.087 137.225 190.104 132.738 190.125 128.252C190.455 128.252 190.785 128.252 191.125 128.252C191.125 140.462 191.125 152.672 191.125 165.252C207.295 165.252 223.465 165.252 240.125 165.252C240.125 173.172 240.125 181.092 240.125 189.252C238.464 190.913 236.463 190.372 234.245 190.376C233.546 190.373 232.847 190.369 232.127 190.365C231.383 190.366 230.64 190.366 229.874 190.366C227.456 190.365 225.039 190.357 222.621 190.35C221.133 190.348 219.645 190.347 218.156 190.347C212.625 190.341 207.094 190.327 201.562 190.314C189.208 190.294 176.854 190.273 164.125 190.252C164.125 144.052 164.125 97.852 164.125 50.252Z" fill="#AC8C89"/>
<path d="M1430.99 0.00500488C1431.75 0.0064299 1432.5 0.00785492 1433.28 0.00932312C1434.57 0.00470817 1434.57 0.00470817 1435.88 0C1436.81 0.00718551 1437.74 0.014371 1438.69 0.0217743C1439.64 0.0222325 1440.59 0.0226907 1441.57 0.0231628C1443.58 0.0261867 1445.58 0.0340768 1447.59 0.0464325C1450.68 0.0646886 1453.76 0.0669422 1456.85 0.0666962C1458.8 0.0716112 1460.74 0.0774395 1462.69 0.0842743C1464.09 0.0859435 1464.09 0.0859435 1465.51 0.0876465C1466.36 0.0940263 1467.22 0.100406 1468.1 0.106979C1468.85 0.110791 1469.61 0.114603 1470.39 0.11853C1472.12 0.252243 1472.12 0.252243 1473.12 1.25224C1473.25 3.22844 1473.3 5.20962 1473.31 7.18974C1473.33 8.27127 1473.34 9.35279 1473.36 10.4671C1473.12 13.2522 1473.12 13.2522 1471.12 15.2522C1469.25 15.4928 1469.25 15.4928 1466.95 15.4793C1465.66 15.4791 1465.66 15.4791 1464.34 15.4788C1463.41 15.4685 1462.48 15.4582 1461.52 15.4476C1460.57 15.4447 1459.62 15.4419 1458.64 15.439C1455.59 15.4278 1452.55 15.4027 1449.5 15.3772C1447.44 15.3672 1445.38 15.3581 1443.31 15.3499C1438.25 15.3278 1433.19 15.2933 1428.12 15.2522C1426.82 12.6504 1426.96 10.6553 1426.94 7.75224C1426.92 6.77256 1426.91 5.79287 1426.89 4.78349C1427.17 1.73378 1427.82 0.425346 1430.99 0.00500488Z" fill="#865D5E"/>
<path d="M530.125 72.252C533.654 74.9302 533.855 77.8996 534.562 82.127C535.452 87.1166 536.536 91.863 538.125 96.6895C539.832 101.978 540.902 107.207 541.842 112.68C543.084 119.582 544.968 126.278 546.856 133.027C548.838 140.129 550.62 147.254 552.254 154.443C552.8 156.832 553.367 159.216 553.965 161.592C556.164 170.442 557.167 179.192 558.125 188.252C549.215 188.252 540.305 188.252 531.125 188.252C530.795 185.282 530.465 182.312 530.125 179.252C531.115 178.262 531.115 178.262 532.125 177.252C533.89 180.34 534.125 181.485 534.125 185.252C540.395 185.252 546.665 185.252 553.125 185.252C552.444 181.973 552.444 181.973 551.75 178.627C551.495 177.397 551.24 176.167 550.977 174.9C550.203 171.588 549.227 168.467 548.125 165.252C546.62 159.852 545.164 154.46 544.562 148.877C544.137 145.352 543.283 142.596 542.125 139.252C540.063 131.865 538.516 124.413 537.215 116.86C536.318 111.792 534.815 107.156 533.066 102.33C532.014 98.8876 531.514 95.5715 531.062 92.002C530.602 87.4744 530.602 87.4744 529.125 83.252C529.03 81.5666 528.995 79.8775 529 78.1895C528.997 77.291 528.995 76.3925 528.992 75.4668C529.125 73.252 529.125 73.252 530.125 72.252Z" fill="#906A6A"/>
<path d="M350.375 63.8775C351.139 63.8791 351.902 63.8807 352.689 63.8824C358.516 64.0096 362.253 64.8792 367.125 68.2525C368.053 68.8506 368.982 69.4487 369.938 70.065C375.654 75.7815 375.651 82.5655 376.125 90.2525C381.735 90.2525 387.345 90.2525 393.125 90.2525C392.919 87.9837 392.713 85.715 392.5 83.3775C392.149 79.5103 392.149 79.5103 392.125 76.2525C392.785 75.5925 393.445 74.9325 394.125 74.2525C394.472 75.7077 394.802 77.1669 395.125 78.6275C395.311 79.4396 395.497 80.2517 395.688 81.0884C396.289 85.4375 396.125 89.862 396.125 94.2525C388.205 94.2525 380.285 94.2525 372.125 94.2525C371.878 92.0662 371.63 89.88 371.375 87.6275C370.281 80.0879 369.237 76.6022 363.063 71.94C357.495 68.7414 352.41 68.7573 346.125 69.2525C341.292 70.9223 339.045 73.125 336.125 77.2525C332.775 86.3547 332.657 95.94 332.614 105.522C332.597 106.938 332.579 108.355 332.559 109.771C332.512 113.452 332.482 117.132 332.456 120.813C332.426 124.588 332.379 128.363 332.334 132.137C332.249 139.509 332.181 146.881 332.125 154.252C331.465 153.922 330.805 153.592 330.125 153.252C328.724 145.99 328.964 138.596 328.957 131.225C328.954 129.868 328.951 128.511 328.947 127.154C328.941 124.321 328.939 121.487 328.94 118.654C328.94 115.046 328.926 111.437 328.909 107.829C328.898 105.029 328.896 102.23 328.897 99.4302C328.895 97.46 328.884 95.4899 328.873 93.5198C328.918 75.6774 328.918 75.6774 334.5 69.815C335.378 68.8579 335.378 68.8579 336.274 67.8814C340.646 64.0351 344.689 63.8652 350.375 63.8775Z" fill="#875D5E"/>
<path d="M1428.92 207.131C1429.7 207.133 1430.47 207.135 1431.28 207.138C1432.6 207.138 1432.6 207.138 1433.95 207.138C1434.9 207.143 1435.86 207.148 1436.85 207.153C1438.31 207.156 1438.31 207.156 1439.8 207.158C1442.93 207.163 1446.06 207.176 1449.19 207.189C1451.3 207.194 1453.42 207.198 1455.53 207.202C1460.73 207.213 1465.93 207.23 1471.12 207.251C1472.51 210.016 1472.22 212.297 1472.19 215.376C1472.18 216.472 1472.17 217.568 1472.16 218.696C1472.15 219.539 1472.14 220.383 1472.12 221.251C1465.73 221.276 1459.34 221.294 1452.95 221.306C1450.78 221.311 1448.6 221.318 1446.43 221.327C1443.31 221.339 1440.19 221.344 1437.07 221.349C1435.6 221.357 1435.6 221.357 1434.1 221.364C1433.2 221.364 1432.3 221.365 1431.37 221.365C1430.17 221.368 1430.17 221.368 1428.95 221.371C1427.12 221.251 1427.12 221.251 1426.12 220.251C1426.03 218.253 1426 216.252 1426 214.251C1426 213.158 1425.99 212.065 1425.99 210.939C1426.17 207.315 1426.17 207.315 1428.92 207.131Z" fill="#855B5C"/>
<path d="M1243.12 38.252C1288.01 38.252 1332.88 38.252 1379.12 38.252C1380.47 40.9452 1380.25 43.0185 1380.25 46.0352C1380.25 47.882 1380.25 47.882 1380.25 49.7661C1380.25 51.1379 1380.24 52.5096 1380.24 53.8813C1380.24 55.32 1380.24 56.7587 1380.24 58.1974C1380.24 62.1104 1380.23 66.0234 1380.23 69.9364C1380.22 74.023 1380.22 78.1096 1380.22 82.1963C1380.22 89.9381 1380.21 97.68 1380.2 105.422C1380.19 114.234 1380.18 123.047 1380.18 131.859C1380.16 149.99 1380.15 168.121 1380.12 186.252C1379.46 186.582 1378.8 186.912 1378.12 187.252C1378.12 184.282 1378.12 181.312 1378.12 178.252C1377.13 178.912 1376.15 179.572 1375.12 180.252C1372.56 180.502 1372.56 180.502 1370.12 180.252C1368.12 178.252 1368.12 178.252 1367.93 176.088C1367.95 175.276 1367.98 174.464 1368 173.627C1368.02 172.81 1368.04 171.992 1368.05 171.15C1368.08 170.524 1368.1 169.897 1368.12 169.252C1374.75 168.002 1374.75 168.002 1378.12 170.252C1378.12 132.632 1378.12 95.012 1378.12 56.252C1377.13 56.912 1376.15 57.572 1375.12 58.252C1372.56 58.502 1372.56 58.502 1370.12 58.252C1368.12 56.252 1368.12 56.252 1367.94 52.6895C1368.12 49.252 1368.12 49.252 1369.12 48.252C1375.65 48.0147 1375.65 48.0147 1378.12 49.252C1378.12 45.952 1378.12 42.652 1378.12 39.252C1333.24 39.582 1288.37 39.912 1242.12 40.252C1242.46 39.592 1242.78 38.932 1243.12 38.252Z" fill="#A98987"/>
<path d="M507.125 78.252C509.809 80.9358 509.737 82.8859 510.309 86.623C510.514 87.9205 510.72 89.2179 510.932 90.5547C511.143 91.9328 511.353 93.3111 511.562 94.6895C512.817 102.889 514.155 110.946 516.471 118.927C517.792 123.625 518.388 128.435 519.125 133.252C511.865 133.252 504.605 133.252 497.125 133.252C498.277 125.895 499.671 118.689 501.398 111.447C502.307 107.452 503.021 103.437 503.695 99.3965C504.125 97.252 504.125 97.252 505.125 95.252C505.518 92.3765 505.871 89.5108 506.188 86.627C506.278 85.8252 506.369 85.0234 506.463 84.1973C506.687 82.2159 506.906 80.234 507.125 78.252Z" fill="#F1E4DA"/>
<path d="M5.125 54.252C11.725 54.252 18.325 54.252 25.125 54.252C25.785 55.572 26.445 56.892 27.125 58.252C26.465 57.922 25.805 57.592 25.125 57.252C19.185 56.922 13.245 56.592 7.125 56.252C7.125 98.492 7.125 140.732 7.125 184.252C11.415 184.252 15.705 184.252 20.125 184.252C20.125 152.572 20.125 120.892 20.125 88.252C20.455 88.252 20.785 88.252 21.125 88.252C21.125 120.262 21.125 152.272 21.125 185.252C15.845 185.252 10.565 185.252 5.125 185.252C5.125 142.022 5.125 98.792 5.125 54.252Z" fill="#D6C2BB"/>
<path d="M355.125 114.252C368.655 114.252 382.185 114.252 396.125 114.252C396.125 139.002 396.125 163.752 396.125 189.252C390.185 189.252 384.245 189.252 378.125 189.252C378.125 186.282 378.125 183.312 378.125 180.252C378.455 180.252 378.785 180.252 379.125 180.252C379.125 182.892 379.125 185.532 379.125 188.252C384.405 188.252 389.685 188.252 395.125 188.252C394.465 187.262 393.805 186.272 393.125 185.252C392.847 182.272 392.847 182.272 392.806 178.577C392.796 177.904 392.786 177.231 392.776 176.537C392.745 174.313 392.728 172.089 392.711 169.865C392.692 168.323 392.673 166.78 392.652 165.237C392.601 161.178 392.561 157.119 392.524 153.06C392.484 148.918 392.433 144.775 392.383 140.633C392.286 132.506 392.202 124.379 392.125 116.252C390.55 116.268 390.55 116.268 388.944 116.284C385.056 116.32 381.169 116.343 377.281 116.362C375.597 116.372 373.913 116.386 372.229 116.403C369.812 116.427 367.394 116.438 364.977 116.447C364.221 116.458 363.466 116.468 362.688 116.479C360.832 116.479 358.977 116.374 357.125 116.252C356.465 115.592 355.805 114.932 355.125 114.252Z" fill="#83585A"/>
<path d="M69.125 54.252C75.065 54.252 81.005 54.252 87.125 54.252C87.125 97.482 87.125 140.712 87.125 185.252C86.795 185.252 86.465 185.252 86.125 185.252C86.125 142.352 86.125 99.452 86.125 55.252C80.845 55.252 75.565 55.252 70.125 55.252C70.125 86.602 70.125 117.952 70.125 150.252C67.125 149.252 67.125 149.252 66.0625 147.65C65.7531 146.983 65.4437 146.315 65.125 145.627C64.7886 144.908 64.4521 144.188 64.1055 143.447C63.6201 142.361 63.6201 142.361 63.125 141.252C62.6861 140.289 62.6861 140.289 62.2383 139.307C60.92 136.336 59.7636 133.445 59.125 130.252C59.455 130.252 59.785 130.252 60.125 130.252C60.455 128.602 60.785 126.952 61.125 125.252C63.02 128.701 64.1214 132.24 65.25 136.002C65.6032 137.172 65.9564 138.343 66.3203 139.549C66.7186 140.887 66.7186 140.887 67.125 142.252C68.3719 138.511 68.3017 135.007 68.3303 131.109C68.3452 129.864 68.3452 129.864 68.3603 128.595C68.3919 125.852 68.4167 123.109 68.4414 120.365C68.462 118.464 68.483 116.562 68.5044 114.661C68.5596 109.655 68.609 104.649 68.6572 99.6432C68.7075 94.5355 68.7631 89.4279 68.8184 84.3203C68.9259 74.2976 69.0269 64.2748 69.125 54.252Z" fill="#9F7C7B"/>
<path d="M1139.12 124.252C1153.31 124.252 1167.51 124.252 1182.12 124.252C1181.79 125.242 1181.47 126.232 1181.12 127.252C1168.26 127.252 1155.39 127.252 1142.12 127.252C1142.45 140.122 1142.79 152.992 1143.12 166.252C1164.91 166.747 1164.91 166.747 1187.12 167.252C1187.12 167.912 1187.12 168.572 1187.12 169.252C1171.28 169.252 1155.44 169.252 1139.12 169.252C1139.12 154.402 1139.12 139.552 1139.12 124.252Z" fill="#7E5355"/>
<path d="M66.1259 51.252C72.3959 51.252 78.6659 51.252 85.1259 51.252C84.7959 51.912 84.4659 52.572 84.1259 53.252C79.5059 53.582 74.8859 53.912 70.1259 54.252C69.7959 82.302 69.4659 110.352 69.1259 139.252C64.0423 134.168 66.0182 122.747 66.0095 115.879C66.0126 113.51 66.0203 111.141 66.0282 108.771C66.0301 107.106 66.0315 105.44 66.0325 103.774C66.0363 99.4259 66.0461 95.0777 66.0572 90.7295C66.0675 86.278 66.072 81.8265 66.077 77.375C66.0877 68.6673 66.1053 59.9596 66.1259 51.252Z" fill="#83595A"/>
<path d="M21.125 88.252C22.445 88.582 23.765 88.912 25.125 89.252C26.25 91.291 26.25 91.291 27.125 93.877C28.4732 97.5963 30.0004 100.805 32.0508 104.201C34.5601 108.992 36.2417 114.191 38.125 119.252C38.7862 120.921 39.4509 122.588 40.125 124.252C39.465 124.252 38.805 124.252 38.125 124.252C37.795 123.262 37.465 122.272 37.125 121.252C36.465 120.922 35.805 120.592 35.125 120.252C34.795 121.242 34.465 122.232 34.125 123.252C32.1104 118.743 30.4117 114.237 28.8867 109.541C27.7324 106.072 26.4289 102.667 25.125 99.252C25.125 102.882 25.125 106.512 25.125 110.252C24.795 110.252 24.465 110.252 24.125 110.252C24.125 108.602 24.125 106.952 24.125 105.252C23.465 105.252 22.805 105.252 22.125 105.252C22.125 131.652 22.125 158.052 22.125 185.252C21.795 185.252 21.465 185.252 21.125 185.252C21.125 153.242 21.125 121.232 21.125 88.252Z" fill="#B0928E"/>
<path d="M190.125 128.252C190.455 128.252 190.785 128.252 191.125 128.252C191.125 140.462 191.125 152.672 191.125 165.252C207.295 165.252 223.465 165.252 240.125 165.252C240.125 173.172 240.125 181.092 240.125 189.252C215.375 189.252 190.625 189.252 165.125 189.252C165.125 188.922 165.125 188.592 165.125 188.252C189.215 188.252 213.305 188.252 238.125 188.252C238.125 181.322 238.125 174.392 238.125 167.252C234.744 167.264 231.363 167.275 227.879 167.287C224.619 167.295 221.359 167.301 218.099 167.307C215.827 167.312 213.554 167.319 211.281 167.327C208.022 167.339 204.763 167.345 201.504 167.35C200.481 167.355 199.458 167.36 198.404 167.365C197.463 167.365 196.522 167.365 195.553 167.365C194.72 167.368 193.888 167.37 193.03 167.372C191.125 167.252 191.125 167.252 190.125 166.252C190.036 163.44 190.01 160.653 190.027 157.842C190.029 157 190.03 156.158 190.032 155.29C190.037 152.59 190.05 149.89 190.062 147.189C190.068 145.363 190.072 143.537 190.076 141.711C190.087 137.225 190.104 132.738 190.125 128.252Z" fill="#9C7877"/>
<path d="M35.1254 120.252C36.1154 120.582 37.1054 120.912 38.1254 121.252C38.1254 122.242 38.1254 123.232 38.1254 124.252C38.7854 124.252 39.4454 124.252 40.1254 124.252C44.9068 133.631 49.3242 143.094 53.1489 152.904C54.0947 155.178 55.1644 157.325 56.3129 159.502C57.9705 162.758 58.9608 165.547 59.1254 169.252C58.1879 172.127 58.1879 172.127 57.1254 174.252C56.8547 173.708 56.584 173.164 56.3051 172.604C55.4643 170.928 54.6144 169.256 53.7583 167.588C50.5297 161.248 47.6597 154.897 45.1254 148.252C42.9744 142.696 40.7155 137.302 38.0083 131.994C35.9341 127.901 34.8612 124.877 35.1254 120.252Z" fill="#8E6767"/>
<path d="M1390.12 30.252C1411.91 30.252 1433.68 30.252 1456.12 30.252C1456.12 31.242 1456.12 32.232 1456.12 33.252C1434.01 33.252 1411.91 33.252 1389.12 33.252C1389.46 32.262 1389.78 31.272 1390.12 30.252Z" fill="#A3817F"/>
<path d="M497.125 119.252C497.455 119.252 497.785 119.252 498.125 119.252C498.362 124.943 497.582 128.423 496.125 134.252C504.045 134.252 511.965 134.252 520.125 134.252C520.455 132.272 520.785 130.292 521.125 128.252C522.562 129.314 522.562 129.314 524.125 131.252C524.62 134.717 524.62 134.717 525.125 138.252C513.905 138.252 502.685 138.252 491.125 138.252C491.455 135.942 491.785 133.632 492.125 131.252C492.785 131.252 493.445 131.252 494.125 131.252C494.324 130.078 494.324 130.078 494.527 128.881C494.704 127.869 494.881 126.857 495.062 125.814C495.237 124.805 495.411 123.796 495.59 122.756C496.125 120.252 496.125 120.252 497.125 119.252Z" fill="#886061"/>
<path d="M331.125 85.252C331.455 85.252 331.785 85.252 332.125 85.252C332.125 108.022 332.125 130.792 332.125 154.252C331.465 153.922 330.805 153.592 330.125 153.252C328.864 146.503 328.964 139.716 328.957 132.869C328.954 131.696 328.951 130.523 328.947 129.314C328.942 126.845 328.94 124.376 328.94 121.907C328.938 118.132 328.92 114.358 328.901 110.584C328.898 108.179 328.896 105.774 328.895 103.369C328.888 102.244 328.88 101.119 328.873 99.9597C328.888 94.6733 328.958 90.1833 331.125 85.252Z" fill="#845A5C"/>
<path d="M626.125 42.252C636.355 42.252 646.585 42.252 657.125 42.252C657.125 43.242 657.125 44.232 657.125 45.252C647.885 45.252 638.645 45.252 629.125 45.252C629.125 54.492 629.125 63.732 629.125 73.252C628.135 73.252 627.145 73.252 626.125 73.252C626.125 63.022 626.125 52.792 626.125 42.252Z" fill="#A68583"/>
<path d="M782.125 170.252C783.115 170.252 784.105 170.252 785.125 170.252C785.15 174.506 785.168 178.76 785.18 183.014C785.185 184.463 785.192 185.911 785.2 187.359C785.213 189.437 785.218 191.514 785.223 193.592C785.231 195.469 785.231 195.469 785.239 197.385C785.125 200.252 785.125 200.252 784.125 201.252C781.906 201.34 779.685 201.359 777.465 201.35C776.468 201.347 776.468 201.347 775.451 201.345C773.322 201.34 771.192 201.327 769.062 201.314C767.622 201.309 766.181 201.305 764.74 201.301C761.202 201.29 757.663 201.272 754.125 201.252C754.125 200.262 754.125 199.272 754.125 198.252C763.365 198.252 772.605 198.252 782.125 198.252C782.125 189.012 782.125 179.772 782.125 170.252Z" fill="#A3817F"/>
<path d="M754.125 42.2522C758.379 42.2275 762.633 42.2094 766.887 42.1973C768.336 42.1922 769.784 42.1854 771.232 42.1768C773.31 42.1647 775.387 42.159 777.465 42.1545C778.716 42.1493 779.968 42.1441 781.258 42.1387C784.125 42.2522 784.125 42.2522 785.125 43.2522C785.213 45.3978 785.232 47.5462 785.223 49.6936C785.219 50.9988 785.216 52.304 785.213 53.6487C785.205 55.0374 785.196 56.426 785.188 57.8147C785.182 59.2073 785.178 60.5999 785.174 61.9924C785.162 65.4124 785.146 68.8323 785.125 72.2522C784.135 72.5822 783.145 72.9122 782.125 73.2522C782.125 64.0122 782.125 54.7722 782.125 45.2522C772.885 45.2522 763.645 45.2522 754.125 45.2522C754.125 44.2622 754.125 43.2722 754.125 42.2522Z" fill="#A2807F"/>
<path d="M527.125 151.252C530.608 154.735 530.518 159.896 531.313 164.627C531.598 166.209 531.598 166.209 531.889 167.822C532.064 168.838 532.238 169.854 532.418 170.9C532.578 171.83 532.738 172.76 532.903 173.718C533.121 176.206 532.895 177.896 532.125 180.252C531.795 179.922 531.465 179.592 531.125 179.252C531.125 182.222 531.125 185.192 531.125 188.252C540.035 188.252 548.945 188.252 558.125 188.252C557.465 185.942 556.805 183.632 556.125 181.252C556.5 178.814 556.5 178.814 557.125 177.252C559.025 182.121 559.125 184.675 559.125 190.252C549.555 190.252 539.985 190.252 530.125 190.252C529.28 186.539 528.434 182.827 527.563 179.002C527.293 177.838 527.023 176.673 526.744 175.474C526.436 174.088 526.436 174.088 526.121 172.674C525.907 171.731 525.692 170.789 525.471 169.817C525.126 167.259 525.305 165.675 526.125 163.252C526.785 164.902 527.445 166.552 528.125 168.252C529.511 165.481 528.805 163.885 528.188 160.877C527.5 157.499 527.125 154.73 527.125 151.252Z" fill="#A2807F"/>
<path d="M514.125 101.252C515.115 101.582 516.105 101.912 517.125 102.252C517.75 104.002 517.75 104.002 518.125 106.252C518.743 109.539 519.53 112.552 520.688 115.689C522.363 120.478 522.82 125.21 523.125 130.252C522.465 130.252 521.805 130.252 521.125 130.252C520.795 131.572 520.465 132.892 520.125 134.252C512.205 134.252 504.285 134.252 496.125 134.252C496.455 131.612 496.785 128.972 497.125 126.252C498.059 129.262 498.169 130.118 497.125 133.252C504.385 133.252 511.645 133.252 519.125 133.252C518.671 131.54 518.218 129.828 517.75 128.064C515.559 119.278 513.702 110.344 514.125 101.252Z" fill="#9A7676"/>
<path d="M490.125 50.252C502.335 50.252 514.545 50.252 527.125 50.252C531.625 67.127 531.625 67.127 532.125 74.252C531.465 73.922 530.805 73.592 530.125 73.252C529.63 75.727 529.63 75.727 529.125 78.252C528.465 77.922 527.805 77.592 527.125 77.252C524.387 68.8119 522.021 59.4603 526.125 51.252C514.575 51.252 503.025 51.252 491.125 51.252C490.795 51.912 490.465 52.572 490.125 53.252C490.125 52.262 490.125 51.272 490.125 50.252Z" fill="#9A7675"/>
<path d="M627.125 171.252C627.785 171.252 628.445 171.252 629.125 171.252C629.125 180.162 629.125 189.072 629.125 198.252C638.365 198.252 647.605 198.252 657.125 198.252C657.125 199.242 657.125 200.232 657.125 201.252C647.225 201.252 637.325 201.252 627.125 201.252C627.125 191.352 627.125 181.452 627.125 171.252Z" fill="#A07E7C"/>
<path d="M491.125 51.252C502.675 51.252 514.225 51.252 526.125 51.252C525.795 52.572 525.465 53.892 525.125 55.252C507.8 55.747 507.8 55.747 490.125 56.252C490.455 54.602 490.785 52.952 491.125 51.252Z" fill="#896162"/>
<path d="M489.125 53.252C490.445 53.912 491.765 54.572 493.125 55.252C492.815 62.1686 492.363 68.4312 489.883 74.9199C488.641 78.7402 488.191 82.6793 487.652 86.6504C487.125 89.252 487.125 89.252 485.125 92.252C485.455 87.632 485.785 83.012 486.125 78.252C485.135 80.727 485.135 80.727 484.125 83.252C483 79.502 483 79.502 484.125 77.252C484.228 76.0351 484.331 74.8182 484.438 73.5645C485.121 66.6126 487.227 59.9508 489.125 53.252Z" fill="#946F6E"/>
<path d="M554.125 173.252C556.389 175.516 556.609 176.562 557.25 179.627C557.418 180.398 557.585 181.169 557.758 181.963C558.125 184.252 558.125 184.252 558.125 188.252C549.215 188.252 540.305 188.252 531.125 188.252C530.795 185.282 530.465 182.312 530.125 179.252C530.785 178.592 531.445 177.932 532.125 177.252C533.89 180.34 534.125 181.485 534.125 185.252C540.395 185.252 546.665 185.252 553.125 185.252C553.104 183.643 553.084 182.034 553.062 180.377C553 175.502 553 175.502 554.125 173.252Z" fill="#855B5D"/>
<path d="M1029.12 51.2529C1031.28 50.9123 1031.28 50.9123 1033.91 50.9599C1034.86 50.9696 1035.8 50.9792 1036.77 50.9892C1038.24 51.0269 1038.24 51.0269 1039.75 51.0654C1041.24 51.0857 1041.24 51.0857 1042.76 51.1064C1045.21 51.1418 1047.67 51.1912 1050.12 51.2529C1049.58 56.8739 1048.79 62.3037 1047.56 67.8154C1047.29 69.0335 1047.02 70.2517 1046.75 71.5068C1046.54 72.413 1046.34 73.3192 1046.12 74.2529C1044.81 74.5829 1043.49 74.9129 1042.12 75.2529C1042.41 73.0645 1042.7 70.8772 1043 68.6904C1043.16 67.4722 1043.32 66.254 1043.49 64.9989C1044.12 61.2529 1044.12 61.2529 1046.12 54.2529C1039.85 54.2529 1033.59 54.2529 1027.12 54.2529C1027.79 53.2629 1028.44 52.2729 1029.12 51.2529Z" fill="#815658"/>
<path d="M998.125 126.252C999.969 129.461 1000.55 132.23 1000.98 135.893C1001.11 136.962 1001.23 138.032 1001.37 139.135C1001.49 140.246 1001.62 141.357 1001.75 142.502C1001.95 144.192 1001.95 144.192 1002.16 145.916C1002.49 148.694 1002.81 151.473 1003.12 154.252C1003.45 149.962 1003.78 145.672 1004.12 141.252C1004.45 141.252 1004.78 141.252 1005.12 141.252C1005.32 143.981 1005.51 146.71 1005.69 149.439C1005.74 150.208 1005.8 150.977 1005.86 151.77C1006.12 155.793 1006.19 159.313 1005.12 163.252C1004.13 163.252 1003.14 163.252 1002.12 163.252C998.862 154.441 996.387 145.819 997.832 136.4C998.295 133.008 998.187 129.671 998.125 126.252Z" fill="#A38280"/>
<path d="M486.125 77.252C487.253 80.6676 486.992 83.1594 486.348 86.6738C486.164 87.6986 485.98 88.7234 485.791 89.7793C485.592 90.8428 485.393 91.9062 485.188 93.002C484.992 94.0809 484.797 95.1598 484.596 96.2715C484.113 98.9331 483.622 101.593 483.125 104.252C481.805 104.252 480.485 104.252 479.125 104.252C479.717 89.5445 479.717 89.5445 483.125 83.252C483.682 82.1176 484.239 80.9832 484.812 79.8145C485.246 78.9688 485.679 78.1232 486.125 77.252Z" fill="#855B5C"/>
<path d="M1375.12 168.252C1377.12 170.252 1377.12 170.252 1377.39 172.127C1377.39 172.829 1377.38 173.53 1377.38 174.252C1377.38 174.954 1377.39 175.655 1377.39 176.377C1377.12 178.252 1377.12 178.252 1375.12 180.252C1372.62 180.502 1372.62 180.502 1370.12 180.252C1368.12 178.252 1368.12 178.252 1367.93 176.088C1367.95 175.276 1367.98 174.464 1368 173.627C1368.02 172.81 1368.04 171.993 1368.05 171.151C1368.08 170.524 1368.1 169.898 1368.12 169.252C1370.64 167.996 1372.34 168.044 1375.12 168.252Z" fill="#E2D1C9"/>
<path d="M1017.12 88.252C1017.45 88.252 1017.78 88.252 1018.12 88.252C1017.68 98.2224 1016.29 107.526 1014.12 117.252C1013.13 117.252 1012.14 117.252 1011.12 117.252C1012.07 93.3032 1012.07 93.3032 1017.12 88.252Z" fill="#845A5B"/>
<path d="M1333.12 168.252C1335.12 170.252 1335.12 170.252 1335.36 172.162C1335.24 178.141 1335.24 178.141 1334.12 179.252C1330.62 179.377 1330.62 179.377 1327.12 179.252C1326.12 178.252 1326.12 178.252 1326.03 176.186C1326.04 175.362 1326.05 174.538 1326.06 173.69C1326.07 172.864 1326.08 172.037 1326.09 171.186C1326.1 170.548 1326.11 169.91 1326.12 169.252C1328.64 167.996 1330.34 168.044 1333.12 168.252Z" fill="#E4D3CB"/>
<path d="M1351.56 48.0645C1355.12 48.252 1355.12 48.252 1357.12 50.252C1357.31 53.8145 1357.31 53.8145 1357.12 57.252C1356.12 58.252 1356.12 58.252 1352.69 58.4395C1349.12 58.252 1349.12 58.252 1347.12 56.252C1346.94 52.6895 1346.94 52.6895 1347.12 49.252C1348.12 48.252 1348.12 48.252 1351.56 48.0645Z" fill="#D8C4BD"/>
<path d="M530.124 72.252C534.251 75.7685 534.493 80.0786 535.124 85.252C535.265 88.5944 535.252 91.9095 535.124 95.252C534.134 95.252 533.144 95.252 532.124 95.252C530.007 87.9173 528.287 80.9305 529.124 73.252C529.454 72.922 529.784 72.592 530.124 72.252Z" fill="#875E5F"/>
<path d="M1244.97 48.1543C1247.02 48.1868 1249.07 48.2194 1251.12 48.252C1251.32 54.3066 1251.32 54.3066 1251.12 56.252C1249.12 58.252 1249.12 58.252 1246.62 58.502C1244.12 58.252 1244.12 58.252 1242.12 56.252C1241.94 52.6895 1241.94 52.6895 1242.12 49.252C1243.12 48.252 1243.12 48.252 1244.97 48.1543Z" fill="#E2D2CA"/>
<path d="M1351.56 168.064C1354.12 168.252 1354.12 168.252 1356.12 170.252C1356.45 172.967 1356.26 175.504 1356.12 178.252C1355.12 179.252 1355.12 179.252 1352.12 179.377C1349.12 179.252 1349.12 179.252 1348.12 178.252C1348.03 176.755 1348 175.253 1348 173.752C1348 172.937 1347.99 172.123 1347.99 171.283C1348.19 168.287 1348.56 168.296 1351.56 168.064Z" fill="#E8D9D0"/>
<path d="M1372.62 48.127C1376.12 48.252 1376.12 48.252 1377.12 49.252C1377.31 52.6895 1377.31 52.6895 1377.12 56.252C1375.12 58.252 1375.12 58.252 1372.62 58.502C1370.12 58.252 1370.12 58.252 1368.12 56.252C1367.94 52.6895 1367.94 52.6895 1368.12 49.252C1369.12 48.252 1369.12 48.252 1372.62 48.127Z" fill="#E2D2CA"/>
<path d="M1334.12 48.252C1335.12 49.252 1335.12 49.252 1335.25 52.6895C1335.12 56.252 1335.12 56.252 1334.12 58.252C1331.25 58.377 1331.25 58.377 1328.12 58.252C1326.12 56.252 1326.12 56.252 1326 52.627C1326.04 51.5133 1326.08 50.3995 1326.12 49.252C1328.86 47.8858 1331.11 48.1236 1334.12 48.252Z" fill="#E0CFC7"/>
<path d="M1267.06 48.0645C1270.12 48.252 1270.12 48.252 1272.12 50.252C1272.38 53.252 1272.38 53.252 1272.12 56.252C1270.12 58.252 1270.12 58.252 1267.62 58.502C1265.12 58.252 1265.12 58.252 1263.12 56.252C1262.94 52.6895 1262.94 52.6895 1263.12 49.252C1264.12 48.252 1264.12 48.252 1267.06 48.0645Z" fill="#E5D5CD"/>
<path d="M1309.62 48.127C1313.12 48.252 1313.12 48.252 1314.12 49.252C1314.25 52.752 1314.25 52.752 1314.12 56.252C1313.12 57.252 1313.12 57.252 1309.62 57.377C1306.12 57.252 1306.12 57.252 1305.12 56.252C1305 52.752 1305 52.752 1305.12 49.252C1306.12 48.252 1306.12 48.252 1309.62 48.127Z" fill="#E7D7CE"/>
<path d="M1288.62 48.127C1292.12 48.252 1292.12 48.252 1293.12 49.252C1293.25 52.752 1293.25 52.752 1293.12 56.252C1292.12 57.252 1292.12 57.252 1288.62 57.377C1285.12 57.252 1285.12 57.252 1284.12 56.252C1284 52.752 1284 52.752 1284.12 49.252C1285.12 48.252 1285.12 48.252 1288.62 48.127Z" fill="#E7D8CF"/>
<path d="M963.125 75.252C965.861 77.9881 966.107 80.9578 966.813 84.627C966.955 85.2998 967.098 85.9727 967.244 86.666C967.93 90.1292 968.406 92.9008 967.125 96.252C966.795 95.922 966.465 95.592 966.125 95.252C966.125 98.882 966.125 102.512 966.125 106.252C961.189 98.8478 962.132 91.3244 962.836 82.8613C963.179 79.1909 963.179 79.1909 963.125 75.252Z" fill="#A38280"/>
<path d="M518.125 119.252C518.785 119.252 519.445 119.252 520.125 119.252C523.18 125.607 523.18 125.607 522.938 128.439C522.057 130.404 521.088 132.327 520.125 134.252C512.205 134.252 504.285 134.252 496.125 134.252C496.455 131.612 496.785 128.972 497.125 126.252C498.059 129.262 498.169 130.118 497.125 133.252C504.385 133.252 511.645 133.252 519.125 133.252C518.795 128.632 518.465 124.012 518.125 119.252Z" fill="#997574"/>
<path d="M343.137 48.1534C344.273 48.1583 344.273 48.1583 345.432 48.1632C346.61 48.1758 346.61 48.1758 347.812 48.1886C348.61 48.1931 349.407 48.1976 350.229 48.2023C352.194 48.214 354.16 48.232 356.125 48.2511C356.455 49.2411 356.785 50.2311 357.125 51.2511C345.74 52.2411 345.74 52.2411 334.125 53.2511C336.571 48.36 338.069 48.1153 343.137 48.1534Z" fill="#815759"/>
<path d="M1036.13 106.252C1036.46 106.252 1036.79 106.252 1037.13 106.252C1037.64 120.325 1037.64 120.325 1033.61 125.014C1032.13 126.252 1032.13 126.252 1031.13 126.252C1030.7 119.928 1031.97 114.208 1034.13 108.252C1034.79 107.592 1035.45 106.932 1036.13 106.252Z" fill="#855B5C"/>
<path d="M61.125 125.252C63.02 128.701 64.1214 132.24 65.25 136.002C65.6032 137.172 65.9564 138.343 66.3203 139.549C66.5859 140.441 66.8514 141.333 67.125 142.252C67.785 142.252 68.445 142.252 69.125 142.252C69.455 144.892 69.785 147.532 70.125 150.252C67.125 149.252 67.125 149.252 66.0625 147.65C65.7531 146.983 65.4437 146.315 65.125 145.627C64.7886 144.908 64.4521 144.188 64.1055 143.447C63.7819 142.723 63.4584 141.998 63.125 141.252C62.8324 140.61 62.5398 139.968 62.2383 139.307C60.92 136.336 59.7636 133.445 59.125 130.252C59.455 130.252 59.785 130.252 60.125 130.252C60.455 128.602 60.785 126.952 61.125 125.252Z" fill="#9F7C7A"/>
<path d="M966.125 93.252C970.055 97.8664 970.258 102.152 970.187 108.064C970.178 109.04 970.169 110.016 970.16 111.021C970.148 111.758 970.136 112.494 970.125 113.252C969.135 113.252 968.145 113.252 967.125 113.252C963.953 97.5943 963.953 97.5943 966.125 93.252Z" fill="#865C5D"/>
<path d="M55.1248 111.252C58.9189 115.046 60.7852 121.247 61.3826 126.533C61.3748 128.439 61.3748 128.439 61.1248 131.252C58.1248 130.252 58.1248 130.252 56.9216 128.537C54.0383 122.415 53.8549 117.864 55.1248 111.252Z" fill="#8D6667"/>
<path d="M361.125 47.2523C361.125 47.5823 361.125 47.9123 361.125 48.2523C360.157 48.282 360.157 48.282 359.169 48.3124C356.237 48.4078 353.306 48.5174 350.375 48.6273C348.851 48.6737 348.851 48.6737 347.297 48.7211C346.317 48.7597 345.337 48.7984 344.328 48.8383C342.977 48.8854 342.977 48.8854 341.599 48.9335C339.001 49.2683 337.331 49.8566 335.125 51.2523C334.795 51.9123 334.465 52.5723 334.125 53.2523C336.105 52.9223 338.085 52.5923 340.125 52.2523C337.663 54.714 335.546 54.8957 332.195 55.4945C329.18 55.1418 328.056 53.4782 326.125 51.2523C337.325 45.857 348.998 46.8516 361.125 47.2523Z" fill="#A2807F"/>
<path d="M995.125 112.252C995.455 112.252 995.785 112.252 996.125 112.252C997.718 118.67 998.504 124.715 998.75 131.314C998.789 132.18 998.827 133.046 998.867 133.938C998.96 136.042 999.044 138.147 999.125 140.252C995.832 137.257 995.017 134.638 994.125 130.252C994.5 126.814 994.5 126.814 995.125 124.252C995.785 124.252 996.445 124.252 997.125 124.252C996.795 123.757 996.465 123.262 996.125 122.752C994.689 119.161 994.996 116.107 995.125 112.252Z" fill="#95706F"/>
<path d="M497.125 107.252C497.455 107.252 497.785 107.252 498.125 107.252C498.125 109.562 498.125 111.872 498.125 114.252C498.785 114.252 499.445 114.252 500.125 114.252C500.455 113.262 500.785 112.272 501.125 111.252C501.319 116.779 500.873 121.008 499.125 126.252C498.795 126.252 498.465 126.252 498.125 126.252C497.795 124.272 497.465 122.292 497.125 120.252C495.64 125.697 495.64 125.697 494.125 131.252C493.071 127.035 493.329 124.471 494.125 120.252C494.455 119.922 494.785 119.592 495.125 119.252C495.521 117.239 495.867 115.216 496.187 113.189C496.452 111.532 496.452 111.532 496.723 109.842C496.855 108.987 496.988 108.132 497.125 107.252Z" fill="#A38180"/>
<path d="M359.125 188.252C359.125 188.912 359.125 189.572 359.125 190.252C353.966 191.956 349.682 192.474 344.188 192.377C343.504 192.368 342.82 192.359 342.115 192.35C340.452 192.326 338.788 192.291 337.125 192.252C337.125 191.262 337.125 190.272 337.125 189.252C344.469 188.674 351.756 188.105 359.125 188.252Z" fill="#825759"/>
<path d="M366.125 183.252C364.869 187.124 363.757 189.28 360.125 191.252C357.375 191.439 357.375 191.439 355.125 191.252C355.125 191.912 355.125 192.572 355.125 193.252C352.021 193.31 348.917 193.346 345.812 193.377C344.491 193.402 344.491 193.402 343.143 193.428C342.295 193.434 341.447 193.441 340.574 193.447C339.794 193.458 339.014 193.468 338.21 193.479C336.125 193.252 336.125 193.252 333.125 191.252C335.061 191.269 335.061 191.269 337.035 191.287C338.753 191.296 340.47 191.306 342.188 191.314C343.035 191.323 343.883 191.331 344.756 191.34C349.661 191.359 354.289 191.085 359.125 190.252C359.125 189.592 359.125 188.932 359.125 188.252C357.805 187.922 356.485 187.592 355.125 187.252C356.581 186.581 358.04 185.915 359.5 185.252C360.312 184.881 361.124 184.509 361.961 184.127C364.125 183.252 364.125 183.252 366.125 183.252Z" fill="#A58482"/>
<path d="M375.125 171.252C375.455 172.242 375.785 173.232 376.125 174.252C376.785 174.252 377.445 174.252 378.125 174.252C378.125 174.912 378.125 175.572 378.125 176.252C377.465 176.252 376.805 176.252 376.125 176.252C376.064 176.824 376.004 177.397 375.941 177.986C374.777 181.218 372.771 182.445 370.062 184.502C369.143 185.208 368.224 185.915 367.277 186.643C366.212 187.439 366.212 187.439 365.125 188.252C365.125 185.146 365.664 183.899 367.125 181.252C367.785 181.252 368.445 181.252 369.125 181.252C369.372 180.716 369.62 180.179 369.875 179.627C371.422 176.688 373.255 173.994 375.125 171.252Z" fill="#8D6666"/>
<path d="M514.125 90.252C516.794 95.4008 518.365 99.7255 518.75 105.564C518.824 106.633 518.899 107.702 518.976 108.803C519.025 109.611 519.074 110.419 519.125 111.252C516.835 107.817 516.946 106.267 517.125 102.252C516.465 102.252 515.805 102.252 515.125 102.252C515.125 105.552 515.125 108.852 515.125 112.252C512.76 109.887 512.575 108.612 511.937 105.377C511.758 104.513 511.579 103.65 511.394 102.76C511.125 100.259 511.348 98.6214 512.125 96.252C512.125 96.912 512.125 97.572 512.125 98.252C512.785 98.252 513.445 98.252 514.125 98.252C514.125 95.612 514.125 92.972 514.125 90.252Z" fill="#B0928F"/>
<path d="M22.125 88.252C25.125 89.252 25.125 89.252 26.9375 92.0645C28.125 95.252 28.125 95.252 27.375 97.4395C26.9625 98.0376 26.55 98.6357 26.125 99.252C25.2081 102.003 25.0161 103.611 25.0625 106.439C25.0831 107.698 25.1037 108.956 25.125 110.252C24.795 110.252 24.465 110.252 24.125 110.252C24.125 108.602 24.125 106.952 24.125 105.252C23.465 105.252 22.805 105.252 22.125 105.252C22.125 99.642 22.125 94.032 22.125 88.252Z" fill="#906A6A"/>
<path d="M309.126 150.252C312.858 155.85 313.399 161.707 313.126 168.252C312.466 168.582 311.806 168.912 311.126 169.252C308.585 163.429 307.439 158.622 308.126 152.252C308.456 151.592 308.786 150.932 309.126 150.252Z" fill="#815758"/>
<path d="M1019.12 65.252C1019.45 65.252 1019.78 65.252 1020.12 65.252C1020.22 71.4043 1020.22 71.4043 1020.12 73.252C1019.8 73.582 1019.47 73.912 1019.12 74.252C1018.73 76.4321 1018.38 78.6216 1018.06 80.8145C1017.89 82.012 1017.71 83.2095 1017.53 84.4434C1017.39 85.3702 1017.26 86.297 1017.12 87.252C1017.79 87.252 1018.44 87.252 1019.12 87.252C1019.31 97.81 1019.31 97.81 1018.12 102.252C1017.8 102.252 1017.46 102.252 1017.12 102.252C1017.12 97.962 1017.12 93.672 1017.12 89.252C1016.46 89.582 1015.81 89.912 1015.12 90.252C1015.41 87.5844 1015.7 84.9181 1016 82.252C1016.08 81.5082 1016.16 80.7644 1016.24 79.998C1016.81 74.9375 1017.8 70.1691 1019.12 65.252Z" fill="#A58482"/>
<path d="M506.125 77.252C506.455 77.252 506.785 77.252 507.125 77.252C507.352 83.5969 507.027 89.4484 504.125 95.252C503.465 95.252 502.805 95.252 502.125 95.252C502.473 88.621 503.086 83.198 506.125 77.252Z" fill="#926C6C"/>
<path d="M1004.13 141.252C1004.46 141.252 1004.79 141.252 1005.13 141.252C1005.32 143.981 1005.51 146.71 1005.69 149.439C1005.74 150.208 1005.8 150.977 1005.86 151.77C1006.12 155.793 1006.19 159.313 1005.13 163.252C1004.14 163.252 1003.15 163.252 1002.13 163.252C1000.74 160.977 1000.07 159.75 1000.38 157.064C1001.13 155.252 1001.13 155.252 1003.13 154.252C1003.6 151.206 1003.6 151.206 1003.75 147.689C1003.83 146.492 1003.9 145.294 1003.98 144.061C1004.03 143.134 1004.08 142.207 1004.13 141.252Z" fill="#B39693"/>
<path d="M1035.12 98.252C1035.58 98.912 1036.03 99.572 1036.5 100.252C1037.04 100.912 1037.57 101.572 1038.12 102.252C1038.78 102.252 1039.45 102.252 1040.12 102.252C1039.84 104.545 1039.55 106.836 1039.25 109.127C1039.09 110.403 1038.93 111.679 1038.76 112.994C1038.12 116.252 1038.12 116.252 1036.12 118.252C1036.12 114.622 1036.12 110.992 1036.12 107.252C1035.13 108.242 1034.14 109.232 1033.12 110.252C1033.79 106.252 1034.46 102.252 1035.12 98.252Z" fill="#A07E7D"/>
<path d="M1011.12 104.252C1011.45 104.252 1011.78 104.252 1012.12 104.252C1012.2 108.768 1012.23 112.843 1011.12 117.252C1012.11 117.252 1013.1 117.252 1014.12 117.252C1013.79 119.562 1013.46 121.872 1013.12 124.252C1012.79 124.252 1012.46 124.252 1012.12 124.252C1011.79 122.602 1011.46 120.952 1011.12 119.252C1010.13 122.222 1009.14 125.192 1008.12 128.252C1007.04 123.919 1007.41 122.178 1008.5 117.939C1009.63 113.369 1010.58 108.925 1011.12 104.252Z" fill="#AA8A87"/>
<path d="M348.344 63.791C349.473 63.8336 349.473 63.8336 350.625 63.877C351.378 63.8898 352.131 63.9027 352.906 63.916C355.317 64.2809 357.016 65.0537 359.125 66.252C359.125 66.582 359.125 66.912 359.125 67.252C350.71 67.747 350.71 67.747 342.125 68.252C346.125 64.252 346.125 64.252 348.344 63.791Z" fill="#805657"/>
<path d="M970.125 103.252C970.455 103.252 970.785 103.252 971.125 103.252C971.49 105 971.841 106.75 972.188 108.502C972.385 109.476 972.582 110.451 972.785 111.455C973.109 114.12 972.98 115.741 972.125 118.252C971.795 117.922 971.465 117.592 971.125 117.252C971.125 120.552 971.125 123.852 971.125 127.252C968.554 124.681 968.722 123.262 968.438 119.689C968.351 118.698 968.265 117.707 968.176 116.686C968.151 115.481 968.151 115.481 968.125 114.252C968.455 113.922 968.785 113.592 969.125 113.252C969.358 111.57 969.538 109.881 969.688 108.189C969.771 107.27 969.855 106.351 969.941 105.404C970.002 104.694 970.063 103.984 970.125 103.252Z" fill="#9E7B7A"/>
<path d="M1011.13 118.252C1011.46 118.252 1011.79 118.252 1012.13 118.252C1012.68 129.774 1012.68 129.774 1009.13 135.252C1008.8 135.252 1008.47 135.252 1008.13 135.252C1007.92 129.468 1008.47 124.806 1010.13 119.252C1010.46 118.922 1010.79 118.592 1011.13 118.252Z" fill="#845A5C"/>
<path d="M1043.13 61.252C1043.46 61.252 1043.79 61.252 1044.13 61.252C1044.2 65.7681 1044.23 69.8428 1043.13 74.252C1043.79 74.252 1044.45 74.252 1045.13 74.252C1044.8 77.222 1044.47 80.192 1044.13 83.252C1042.23 81.4336 1041.22 79.925 1040.86 77.2988C1040.75 71.7421 1041.71 66.6071 1043.13 61.252Z" fill="#9B7776"/>
<path d="M1017.13 88.252C1017.46 88.252 1017.79 88.252 1018.13 88.252C1017.8 92.872 1017.47 97.492 1017.13 102.252C1016.14 102.582 1015.15 102.912 1014.13 103.252C1013.56 92.5267 1013.56 92.5267 1017.13 88.252Z" fill="#825759"/>
<path d="M990.125 93.252C990.785 93.912 991.445 94.572 992.125 95.252C991.812 98.502 991.812 98.502 991.125 102.252C990.939 103.386 990.754 104.521 990.562 105.689C990.346 106.958 990.346 106.958 990.125 108.252C988.101 105.217 987.804 104.058 987.5 100.564C987.425 99.7562 987.35 98.948 987.273 98.1152C987.224 97.5004 987.175 96.8855 987.125 96.252C987.785 96.252 988.445 96.252 989.125 96.252C989.455 95.262 989.785 94.272 990.125 93.252Z" fill="#9C7877"/>
<path d="M999.125 142.252C1000.61 143.365 1000.61 143.365 1002.12 145.252C1002.42 148.17 1002.42 148.17 1002.31 151.439C1002.29 152.526 1002.26 153.613 1002.23 154.732C1002.2 155.564 1002.16 156.395 1002.12 157.252C1000.64 156.139 1000.64 156.139 999.125 154.252C998.832 151.334 998.832 151.334 998.937 148.064C998.964 146.978 998.991 145.891 999.019 144.771C999.054 143.94 999.089 143.109 999.125 142.252Z" fill="#957070"/>
<path d="M489.125 53.252C490.445 53.912 491.765 54.572 493.125 55.252C493.011 57.3567 492.883 59.4608 492.75 61.5645C492.68 62.7362 492.611 63.908 492.539 65.1152C492.125 68.252 492.125 68.252 490.125 71.252C490.125 67.622 490.125 63.992 490.125 60.252C489.135 60.747 489.135 60.747 488.125 61.252C488.455 58.612 488.785 55.972 489.125 53.252Z" fill="#9B7776"/>
<path d="M535.125 90.252C535.785 90.912 536.445 91.572 537.125 92.252C536.812 95.502 536.812 95.502 536.125 99.252C535.939 100.386 535.754 101.521 535.562 102.689C535.346 103.958 535.346 103.958 535.125 105.252C533.241 101.986 532.632 98.9708 532.125 95.252C533.115 95.252 534.105 95.252 535.125 95.252C535.125 93.602 535.125 91.952 535.125 90.252Z" fill="#9B7777"/>
<path d="M26.1247 96.252C28.4708 98.3847 29.9874 100.277 31.1247 103.252C31.2497 106.002 31.2497 106.002 31.1247 108.252C30.1347 108.747 30.1347 108.747 29.1247 109.252C26.9062 104.63 25.7419 101.484 26.1247 96.252Z" fill="#8B6464"/>
<path d="M514.125 101.252C515.115 101.582 516.105 101.912 517.125 102.252C518.059 107.669 518.333 111.056 516.125 116.252C515.795 116.252 515.465 116.252 515.125 116.252C514.795 111.302 514.465 106.352 514.125 101.252Z" fill="#896061"/>
<path d="M502.125 86.252C503.233 89.5773 502.97 91.8738 502.125 95.252C502.785 95.252 503.445 95.252 504.125 95.252C504.785 93.932 505.445 92.612 506.125 91.252C505.627 94.9868 505.25 97.0643 503.125 100.252C502.795 99.262 502.465 98.272 502.125 97.252C501.135 97.747 501.135 97.747 500.125 98.252C500.267 96.814 500.414 95.3766 500.562 93.9395C500.644 93.1389 500.725 92.3384 500.809 91.5137C501.125 89.252 501.125 89.252 502.125 86.252Z" fill="#AD8E8B"/>
<path d="M511.124 86.252C513.231 87.9602 514.062 88.7734 514.417 91.5137C514.383 92.3142 514.348 93.1147 514.312 93.9395C514.285 94.7477 514.258 95.5559 514.23 96.3887C514.195 97.0036 514.16 97.6184 514.124 98.252C513.464 98.252 512.804 98.252 512.124 98.252C510.862 95.7272 511.026 93.9399 511.062 91.127C511.071 90.2169 511.08 89.3068 511.089 88.3691C511.101 87.6705 511.112 86.9718 511.124 86.252Z" fill="#845A5B"/>
<path d="M1007.12 128.252C1007.78 129.572 1008.44 130.892 1009.12 132.252C1009.78 131.922 1010.44 131.592 1011.12 131.252C1010.46 134.222 1009.8 137.192 1009.12 140.252C1008.46 140.252 1007.8 140.252 1007.12 140.252C1006.36 135.935 1005.96 132.508 1007.12 128.252Z" fill="#916A6A"/>
<path d="M31.1242 104.252C33.4022 106.53 34.1764 108.19 35.1242 111.252C34.7492 113.564 34.7492 113.564 34.1242 115.252C33.7942 114.262 33.4642 113.272 33.1242 112.252C32.4642 111.922 31.8042 111.592 31.1242 111.252C31.4542 112.902 31.7842 114.552 32.1242 116.252C31.4642 115.922 30.8042 115.592 30.1242 115.252C28.9327 110.883 29.1024 108.296 31.1242 104.252Z" fill="#A07E7C"/>
<path d="M355.125 64.252C361.875 65.002 361.875 65.002 364.125 67.252C363.465 67.252 362.805 67.252 362.125 67.252C361.795 67.912 361.465 68.572 361.125 69.252C354.195 68.757 354.195 68.757 347.125 68.252C347.125 67.922 347.125 67.592 347.125 67.252C352.57 66.757 352.57 66.757 358.125 66.252C357.135 65.592 356.145 64.932 355.125 64.252Z" fill="#8F6868"/>
<path d="M965.124 89.252C966.687 90.502 966.687 90.502 968.124 92.252C967.812 94.4395 967.812 94.4395 967.124 96.252C966.794 95.922 966.464 95.592 966.124 95.252C966.124 98.882 966.124 102.512 966.124 106.252C963.798 102.763 963.882 101.302 963.937 97.1895C963.943 96.126 963.949 95.0625 963.956 93.9668C964.124 91.252 964.124 91.252 965.124 89.252Z" fill="#997574"/>
<path d="M65.125 141.252C66.445 141.582 67.765 141.912 69.125 142.252C69.455 144.892 69.785 147.532 70.125 150.252C67.125 149.252 67.125 149.252 65.125 146.252C65 143.564 65 143.564 65.125 141.252Z" fill="#A58482"/>
<path d="M66.125 126.252C66.455 126.252 66.785 126.252 67.125 126.252C67.455 132.522 67.785 138.792 68.125 145.252C64.1024 139.218 65.2437 133.113 66.125 126.252Z" fill="#CDB7B1"/>
<path d="M45.125 88.252C47.4845 90.6115 47.6164 92.0309 48.125 95.252C47.135 95.252 46.145 95.252 45.125 95.252C45.785 97.892 46.445 100.532 47.125 103.252C45.125 102.252 45.125 102.252 44.4219 100.475C44.2414 99.7618 44.0609 99.0489 43.875 98.3145C43.6842 97.6042 43.4934 96.8939 43.2969 96.1621C43.2402 95.5318 43.1834 94.9014 43.125 94.252C43.785 93.592 44.445 92.932 45.125 92.252C45.125 90.932 45.125 89.612 45.125 88.252Z" fill="#A78785"/>
<path d="M333.125 80.252C333.125 83.552 333.125 86.852 333.125 90.252C332.465 88.932 331.805 87.612 331.125 86.252C330.795 87.902 330.465 89.552 330.125 91.252C329.795 91.252 329.465 91.252 329.125 91.252C328.757 83.7643 328.757 83.7643 330.563 81.252C332.125 80.252 332.125 80.252 333.125 80.252Z" fill="#8C6465"/>
<path d="M506.125 69.252C507.445 69.252 508.765 69.252 510.125 69.252C509.795 69.912 509.465 70.572 509.125 71.252C508.465 71.252 507.805 71.252 507.125 71.252C507.125 72.572 507.125 73.892 507.125 75.252C507.785 75.252 508.445 75.252 509.125 75.252C509.125 76.902 509.125 78.552 509.125 80.252C508.135 79.592 507.145 78.932 506.125 78.252C505.465 78.912 504.805 79.572 504.125 80.252C504.265 78.6056 504.412 76.9599 504.562 75.3145C504.644 74.3979 504.725 73.4814 504.809 72.5371C505.125 70.252 505.125 70.252 506.125 69.252Z" fill="#B39693"/>
<path d="M484.125 171.252C484.455 171.252 484.785 171.252 485.125 171.252C485.125 172.902 485.125 174.552 485.125 176.252C486.115 176.582 487.105 176.912 488.125 177.252C487.795 180.222 487.465 183.192 487.125 186.252C486.795 186.252 486.465 186.252 486.125 186.252C485.795 183.612 485.465 180.972 485.125 178.252C484.465 178.252 483.805 178.252 483.125 178.252C483.455 175.942 483.785 173.632 484.125 171.252Z" fill="#9F7D7B"/>
<path d="M986.125 78.252C988.421 81.6965 988.665 84.1901 989.125 88.252C987.805 87.592 986.485 86.932 985.125 86.252C985 80.502 985 80.502 986.125 78.252Z" fill="#815758"/>
<path d="M52.1249 108.252C53.6099 109.242 53.6099 109.242 55.1249 110.252C55.3124 113.377 55.3124 113.377 55.1249 116.252C54.1349 116.747 54.1349 116.747 53.1249 117.252C51.0326 112.821 51.0326 112.821 51.4999 109.939C51.7061 109.383 51.9124 108.826 52.1249 108.252Z" fill="#865C5D"/>
<path d="M24.125 89.252C26.5878 91.7147 27.1227 93.9587 28.125 97.252C27.135 97.912 26.145 98.572 25.125 99.252C25.125 98.262 25.125 97.272 25.125 96.252C24.465 96.252 23.805 96.252 23.125 96.252C23.455 93.942 23.785 91.632 24.125 89.252Z" fill="#AC8D8A"/>
<path d="M321.125 54.252C321.785 54.582 322.445 54.912 323.125 55.252C322.007 56.5912 320.88 57.9232 319.75 59.252C319.124 59.9945 318.497 60.737 317.852 61.502C316.997 62.3682 316.997 62.3682 316.125 63.252C315.465 63.252 314.805 63.252 314.125 63.252C315.68 59.4351 318.161 57.06 321.125 54.252Z" fill="#987373"/>
<path d="M510.125 80.252C511.115 81.242 512.105 82.232 513.125 83.252C512.875 85.002 512.875 85.002 512.125 87.252C511.775 89.5829 511.439 91.916 511.125 94.252C510.795 94.252 510.465 94.252 510.125 94.252C510.125 89.632 510.125 85.012 510.125 80.252Z" fill="#946E6E"/>
<path d="M500.125 104.252C500.455 104.252 500.785 104.252 501.125 104.252C501.25 110.877 501.25 110.877 500.125 114.252C499.465 114.252 498.805 114.252 498.125 114.252C497.875 107.627 497.875 107.627 500.125 104.252Z" fill="#805657"/>
<path d="M42.1257 85.252C42.4557 86.242 42.7857 87.232 43.1257 88.252C43.7857 88.252 44.4457 88.252 45.1257 88.252C45.4557 89.902 45.7857 91.552 46.1257 93.252C45.1357 93.582 44.1457 93.912 43.1257 94.252C41.5062 91.6798 41.0817 90.5753 41.5007 87.502C41.707 86.7595 41.9132 86.017 42.1257 85.252Z" fill="#83585A"/>
<path d="M62.125 133.252C65.125 135.252 65.125 135.252 65.8125 138.377C65.9672 139.8 65.9672 139.8 66.125 141.252C65.135 141.252 64.145 141.252 63.125 141.252C62.795 138.612 62.465 135.972 62.125 133.252Z" fill="#95706F"/>
<path d="M504.125 85.252C504.455 85.252 504.785 85.252 505.125 85.252C505.25 93.002 505.25 93.002 504.125 95.252C503.465 95.252 502.805 95.252 502.125 95.252C502.583 91.7825 503.016 88.578 504.125 85.252Z" fill="#825859"/>
<path d="M55.125 111.252C57.6905 113.817 57.6655 115.729 58.125 119.252C57.135 118.922 56.145 118.592 55.125 118.252C54.795 119.242 54.465 120.232 54.125 121.252C54.455 117.952 54.785 114.652 55.125 111.252Z" fill="#9D7A79"/>
<path d="M343.125 70.252C341.84 73.1189 340.554 75.228 338.125 77.252C337.465 77.252 336.805 77.252 336.125 77.252C339.263 70.252 339.263 70.252 343.125 70.252Z" fill="#E0CFC7"/>
<path d="M375.125 171.252C375.455 172.242 375.785 173.232 376.125 174.252C376.785 174.252 377.445 174.252 378.125 174.252C378.125 174.912 378.125 175.572 378.125 176.252C377.465 176.252 376.805 176.252 376.125 176.252C375.795 177.572 375.465 178.892 375.125 180.252C374 178.564 374 178.564 373.125 176.252C374 173.502 374 173.502 375.125 171.252Z" fill="#A58482"/>
<path d="M1013.12 97.252C1013.46 97.252 1013.78 97.252 1014.12 97.252C1014.12 99.232 1014.12 101.212 1014.12 103.252C1014.79 103.252 1015.44 103.252 1016.12 103.252C1016.12 104.902 1016.12 106.552 1016.12 108.252C1015.46 107.262 1014.81 106.272 1014.12 105.252C1013.13 105.747 1013.13 105.747 1012.12 106.252C1012.46 103.282 1012.78 100.312 1013.12 97.252Z" fill="#936E6E"/>
</svg>
