<svg width="304" height="120" viewBox="0 0 304 120" fill="none" xmlns="http://www.w3.org/2000/svg">
<path d="M45 86.25C40.5499 86.25 36.1998 84.9304 32.4997 82.4581C28.7996 79.9857 25.9157 76.4717 24.2127 72.3604C22.5097 68.249 22.0642 63.725 22.9323 59.3605C23.8005 54.9959 25.9434 50.9868 29.0901 47.8401C32.2368 44.6934 36.2459 42.5505 40.6105 41.6823C44.975 40.8142 49.499 41.2597 53.6104 42.9627C57.7217 44.6657 61.2357 47.5496 63.7081 51.2497C66.1804 54.9498 67.5 59.2999 67.5 63.75C67.5 69.7174 65.1295 75.4403 60.9099 79.6599C56.6903 83.8795 50.9674 86.25 45 86.25ZM45 48.75C42.0333 48.75 39.1332 49.6297 36.6664 51.278C34.1997 52.9262 32.2771 55.2689 31.1418 58.0098C30.0065 60.7506 29.7094 63.7666 30.2882 66.6764C30.867 69.5861 32.2956 72.2588 34.3934 74.3566C36.4912 76.4544 39.1639 77.883 42.0736 78.4618C44.9834 79.0406 47.9994 78.7435 50.7403 77.6082C53.4811 76.4729 55.8238 74.5503 57.472 72.0836C59.1203 69.6168 60 66.7167 60 63.75C60 59.7718 58.4196 55.9564 55.6066 53.1434C52.7936 50.3304 48.9782 48.75 45 48.75Z" fill="#0F172A"/>
<path d="M108.75 101.25H11.25C10.2554 101.25 9.30161 100.855 8.59835 100.152C7.89509 99.4484 7.5 98.4946 7.5 97.5V22.5C7.5 21.5054 7.89509 20.5516 8.59835 19.8484C9.30161 19.1451 10.2554 18.75 11.25 18.75H108.75C109.745 18.75 110.698 19.1451 111.402 19.8484C112.105 20.5516 112.5 21.5054 112.5 22.5V97.5C112.5 98.4946 112.105 99.4484 111.402 100.152C110.698 100.855 109.745 101.25 108.75 101.25ZM15 93.75H105V26.25H15V93.75Z" fill="#0F172A"/>
<path d="M97.5 33.75H71.25V41.25H97.5V33.75Z" fill="#0F172A"/>
<path d="M45 67.5C47.0711 67.5 48.75 65.8211 48.75 63.75C48.75 61.6789 47.0711 60 45 60C42.9289 60 41.25 61.6789 41.25 63.75C41.25 65.8211 42.9289 67.5 45 67.5Z" fill="#0F172A"/>
<path d="M134.827 51L127.403 36.504L125.451 31.896H125.131L125.355 36.504V51H122.859V28.664H125.995L133.419 43.16L135.371 47.768H135.691L135.467 43.16V28.664H137.963V51H134.827ZM144.226 30.488C143.17 30.488 142.722 30.008 142.722 29.176V28.664C142.722 27.832 143.17 27.352 144.226 27.352C145.282 27.352 145.73 27.832 145.73 28.664V29.176C145.73 30.008 145.282 30.488 144.226 30.488ZM143.01 51V34.488H145.442V51H143.01ZM150.291 51V27.32H152.723V37.176H153.043C153.683 35.16 154.963 34.104 157.267 34.104C160.211 34.104 162.003 36.088 162.003 40.248V51H159.571V40.408C159.571 37.784 158.483 36.312 156.243 36.312C154.291 36.312 152.723 37.592 152.723 39.736V51H150.291ZM178.858 51H177.13C175.594 51 174.762 50.168 174.762 48.632V48.312H174.442C173.898 50.296 172.298 51.384 170.282 51.384C167.082 51.384 165.514 49.72 165.514 46.584C165.514 43.512 167.498 41.592 171.786 41.592H174.762V39.768C174.762 37.336 173.706 36.216 171.37 36.216C169.482 36.216 168.362 37.08 167.53 38.648L166.09 37.304C166.954 35.544 168.938 34.136 171.466 34.136C175.178 34.136 177.194 35.992 177.194 39.512V48.856H178.858V51ZM170.89 49.272C173.13 49.272 174.762 47.64 174.762 45.944V43.448H171.722C169.162 43.448 168.042 44.344 168.042 45.944V46.84C168.042 48.504 169.162 49.272 170.89 49.272ZM184.598 51H182.166V34.488H184.598V37.56H184.918C185.462 35.672 186.838 34.488 188.982 34.488H189.878V36.952H188.278C185.974 36.952 184.598 38.008 184.598 40.024V51ZM200.021 28.664H209.429V45.88C209.429 49.272 207.093 51.384 203.637 51.384C200.245 51.384 198.421 49.4 197.877 46.456L200.181 45.88C200.565 47.768 201.461 49.112 203.637 49.112C205.685 49.112 206.869 47.896 206.869 45.4V30.904H200.021V28.664ZM223.919 41.4V51H221.359V28.664H229.583C233.231 28.664 235.119 30.744 235.119 35.032C235.119 38.648 233.775 40.696 231.151 41.24L235.663 51H232.783L228.591 41.4H223.919ZM223.919 39.224H229.519C231.407 39.224 232.367 38.232 232.367 36.152V33.976C232.367 31.896 231.407 30.904 229.519 30.904H223.919V39.224ZM245.017 51.384C241.145 51.384 238.265 48.888 238.265 42.744C238.265 36.6 241.145 34.104 245.017 34.104C248.889 34.104 251.449 36.6 251.449 42.744V43.352H240.857V44.408C240.857 47.64 242.425 49.24 245.017 49.24C247.225 49.24 248.601 48.248 249.401 46.36L251.065 47.576C250.041 49.816 248.089 51.384 245.017 51.384ZM245.017 36.152C242.393 36.152 240.857 37.848 240.857 41.08V41.496H248.857V41.08C248.857 37.848 247.545 36.152 245.017 36.152ZM264.701 51V48.312H264.381C263.741 50.456 262.269 51.384 260.221 51.384C256.285 51.384 254.205 48.056 254.205 42.744C254.205 37.432 256.285 34.104 260.221 34.104C262.269 34.104 263.741 35.032 264.381 37.176H264.701V27.32H267.133V51H264.701ZM260.957 49.208C263.005 49.208 264.701 47.928 264.701 46.072V39.416C264.701 37.56 263.005 36.28 260.957 36.28C258.269 36.28 256.829 38.072 256.829 41.08V44.408C256.829 47.416 258.269 49.208 260.957 49.208ZM281.482 51V48.312H281.162C280.522 50.456 279.05 51.384 277.002 51.384C273.066 51.384 270.986 48.056 270.986 42.744C270.986 37.432 273.066 34.104 277.002 34.104C279.05 34.104 280.522 35.032 281.162 37.176H281.482V27.32H283.914V51H281.482ZM277.738 49.208C279.786 49.208 281.482 47.928 281.482 46.072V39.416C281.482 37.56 279.786 36.28 277.738 36.28C275.05 36.28 273.61 38.072 273.61 41.08V44.408C273.61 47.416 275.05 49.208 277.738 49.208ZM295.223 42.808L297.751 34.488H300.119L293.591 55.224C293.047 56.952 292.503 57.4 290.647 57.4H288.855V55.256H291.383L292.343 51.896L286.871 34.488H289.303L291.831 42.808L293.367 48.856H293.687L295.223 42.808Z" fill="#334155"/>
<path d="M125.404 93H122.844V70.664H131.068C134.716 70.664 136.604 72.744 136.604 77.032C136.604 81.32 134.716 83.4 131.068 83.4H125.404V93ZM125.404 72.904V81.16H131.004C132.892 81.16 133.852 80.168 133.852 78.088V75.976C133.852 73.896 132.892 72.904 131.004 72.904H125.404ZM140.151 93V69.32H142.583V79.176H142.903C143.543 77.16 144.823 76.104 147.127 76.104C150.071 76.104 151.863 78.088 151.863 82.248V93H149.431V82.408C149.431 79.784 148.343 78.312 146.103 78.312C144.151 78.312 142.583 79.592 142.583 81.736V93H140.151ZM162.189 93.384C158.317 93.384 155.437 90.888 155.437 84.744C155.437 78.6 158.317 76.104 162.189 76.104C166.061 76.104 168.941 78.6 168.941 84.744C168.941 90.888 166.061 93.384 162.189 93.384ZM162.189 91.208C164.813 91.208 166.317 89.64 166.317 86.408V83.08C166.317 79.848 164.813 78.28 162.189 78.28C159.565 78.28 158.061 79.848 158.061 83.08V86.408C158.061 89.64 159.565 91.208 162.189 91.208ZM178.892 93H175.916C174.188 93 173.42 92.232 173.42 90.504V78.632H170.988V76.488H172.428C173.388 76.488 173.644 75.976 173.644 75.016V71.944H175.852V76.488H179.052V78.632H175.852V90.856H178.892V93ZM188.283 93.384C184.411 93.384 181.531 90.888 181.531 84.744C181.531 78.6 184.411 76.104 188.283 76.104C192.155 76.104 195.035 78.6 195.035 84.744C195.035 90.888 192.155 93.384 188.283 93.384ZM188.283 91.208C190.907 91.208 192.411 89.64 192.411 86.408V83.08C192.411 79.848 190.907 78.28 188.283 78.28C185.659 78.28 184.155 79.848 184.155 83.08V86.408C184.155 89.64 185.659 91.208 188.283 91.208ZM211.384 94.856C211.384 98.344 209.048 99.784 204.12 99.784C199.384 99.784 197.528 98.344 197.528 95.688C197.528 93.928 198.52 92.872 199.928 92.616V92.168C199.064 91.688 198.552 90.952 198.552 89.928C198.552 88.552 199.32 87.464 201.08 87.272V86.92C199.384 86.056 198.36 84.36 198.36 81.832C198.36 78.088 200.6 76.136 204.024 76.136C205.08 76.136 206.008 76.328 206.808 76.68V76.104C206.808 74.856 207.32 74.344 208.568 74.344H210.776V76.488H207.928V77.384C209.048 78.344 209.688 79.816 209.688 81.832C209.688 85.576 207.448 87.528 204.024 87.528C203.48 87.528 202.936 87.464 202.456 87.368C201.272 87.592 200.632 88.456 200.632 89.224C200.632 90.056 201.208 90.504 202.552 90.504H206.168C209.88 90.504 211.384 92.04 211.384 94.856ZM209.112 95.016C209.112 93.576 208.28 92.808 206.136 92.808H201.112C200.152 93.288 199.768 93.96 199.768 95.08C199.768 96.744 200.76 97.768 203 97.768H205.112C207.736 97.768 209.112 96.936 209.112 95.016ZM204.024 85.544C206.008 85.544 207.192 84.52 207.192 82.408V81.224C207.192 79.112 206.008 78.088 204.024 78.088C202.04 78.088 200.856 79.112 200.856 81.224V82.408C200.856 84.52 202.04 85.544 204.024 85.544ZM216.458 93H214.026V76.488H216.458V79.56H216.778C217.322 77.672 218.698 76.488 220.842 76.488H221.738V78.952H220.138C217.834 78.952 216.458 80.008 216.458 82.024V93ZM236.592 93H234.864C233.328 93 232.496 92.168 232.496 90.632V90.312H232.176C231.632 92.296 230.032 93.384 228.016 93.384C224.816 93.384 223.248 91.72 223.248 88.584C223.248 85.512 225.232 83.592 229.52 83.592H232.496V81.768C232.496 79.336 231.44 78.216 229.104 78.216C227.216 78.216 226.096 79.08 225.264 80.648L223.824 79.304C224.688 77.544 226.672 76.136 229.2 76.136C232.912 76.136 234.928 77.992 234.928 81.512V90.856H236.592V93ZM228.624 91.272C230.864 91.272 232.496 89.64 232.496 87.944V85.448H229.456C226.896 85.448 225.776 86.344 225.776 87.944V88.84C225.776 90.504 226.896 91.272 228.624 91.272ZM239.901 99.4V76.488H242.333V79.176H242.653C243.293 77.032 244.765 76.104 246.813 76.104C250.749 76.104 252.829 79.432 252.829 84.744C252.829 90.056 250.749 93.384 246.813 93.384C244.765 93.384 243.293 92.456 242.653 90.312H242.333V99.4H239.901ZM246.077 91.208C248.765 91.208 250.205 89.416 250.205 86.408V83.08C250.205 80.072 248.765 78.28 246.077 78.28C244.029 78.28 242.333 79.56 242.333 81.416V88.072C242.333 89.928 244.029 91.208 246.077 91.208ZM256.682 93V69.32H259.114V79.176H259.434C260.074 77.16 261.354 76.104 263.658 76.104C266.602 76.104 268.394 78.088 268.394 82.248V93H265.962V82.408C265.962 79.784 264.874 78.312 262.634 78.312C260.682 78.312 259.114 79.592 259.114 81.736V93H256.682ZM279.239 84.808L281.767 76.488H284.135L277.607 97.224C277.063 98.952 276.519 99.4 274.663 99.4H272.871V97.256H275.399L276.359 93.896L270.887 76.488H273.319L275.847 84.808L277.383 90.856H277.703L279.239 84.808Z" fill="#334155"/>
</svg>
