<svg width="302" height="300" viewBox="0 0 302 300" fill="none" xmlns="http://www.w3.org/2000/svg">
<g clip-path="url(#clip0_481_52300)">
<rect width="302" height="300" fill="#262626"/>
<path d="M268 77H250V329H268V77Z" fill="#FAFAFA"/>
<path d="M187 194H115C105.075 194 97 185.925 97 176V122C97 112.075 105.075 104 115 104H187C196.925 104 205 112.075 205 122V176C205 185.925 196.925 194 187 194ZM115 122V176H187V122H115Z" fill="#FAFAFA"/>
<path d="M115 212H187C196.925 212 205 220.075 205 230V284C205 293.925 196.925 302 187 302H115C105.075 302 97 293.925 97 284V230C97 220.075 105.075 212 115 212ZM187 284V230H115V284H187Z" fill="#FAFAFA"/>
<path d="M52 77H34V329H52V77Z" fill="#FAFAFA"/>
<path d="M268 -142H250V110H268V-142Z" fill="#FAFAFA"/>
<path d="M187 -25H115C105.075 -25 97 -33.0748 97 -43V-97C97 -106.925 105.075 -115 115 -115H187C196.925 -115 205 -106.925 205 -97V-43C205 -33.0748 196.925 -25 187 -25ZM115 -97V-43H187V-97H115Z" fill="#FAFAFA"/>
<path d="M115 -7H187C196.925 -7 205 1.0748 205 11V65C205 74.9252 196.925 83 187 83H115C105.075 83 97 74.9252 97 65V11C97 1.0748 105.075 -7 115 -7ZM187 65V11H115V65H187Z" fill="#FAFAFA"/>
<path d="M52 -142H34V110H52V-142Z" fill="#FAFAFA"/>
</g>
<defs>
<clipPath id="clip0_481_52300">
<rect width="302" height="300" fill="white"/>
</clipPath>
</defs>
</svg>
